<svg width="2371" height="657" viewBox="0 0 2371 657" fill="none" xmlns="http://www.w3.org/2000/svg">
<path d="M2323.25 418.285C2320.84 418.285 2318.86 417.517 2317.33 415.982C2315.79 414.227 2315.02 412.253 2315.02 410.06V192.908C2315.02 190.495 2315.79 188.521 2317.33 186.986C2318.86 185.45 2320.84 184.683 2323.25 184.683H2362.07C2364.49 184.683 2366.46 185.45 2368 186.986C2369.53 188.521 2370.3 190.495 2370.3 192.908V410.06C2370.3 412.253 2369.53 414.227 2368 415.982C2366.46 417.517 2364.49 418.285 2362.07 418.285H2323.25Z" fill="black"/>
<path d="M2186.8 480.798C2184.38 480.798 2182.41 479.921 2180.87 478.166C2179.34 476.631 2178.57 474.766 2178.57 472.573V445.922C2178.57 443.509 2179.34 441.535 2180.87 440C2182.41 438.464 2184.38 437.697 2186.8 437.697H2198.97C2204.45 437.697 2208.62 436.6 2211.47 434.407C2214.32 432.433 2216.3 429.581 2217.39 425.852C2218.49 422.343 2219.04 418.285 2219.04 413.679V255.421C2219.04 253.008 2219.81 251.034 2221.34 249.499C2223.1 247.963 2225.07 247.196 2227.26 247.196H2268.06C2270.48 247.196 2272.45 247.963 2273.99 249.499C2275.52 251.034 2276.29 253.008 2276.29 255.421V414.995C2276.29 429.252 2273.44 441.206 2267.73 450.857C2262.25 460.728 2254.24 468.186 2243.72 473.231C2233.19 478.276 2220.36 480.798 2205.22 480.798H2186.8ZM2226.94 222.519C2224.74 222.519 2222.77 221.752 2221.01 220.216C2219.48 218.681 2218.71 216.707 2218.71 214.294V184.682C2218.71 182.489 2219.48 180.625 2221.01 179.089C2222.77 177.334 2224.74 176.457 2226.94 176.457H2268.39C2270.59 176.457 2272.45 177.334 2273.99 179.089C2275.74 180.625 2276.62 182.489 2276.62 184.682V214.294C2276.62 216.707 2275.74 218.681 2273.99 220.216C2272.45 221.752 2270.59 222.519 2268.39 222.519H2226.94Z" fill="black"/>
<path d="M2130.11 418.284C2127.7 418.284 2125.72 417.517 2124.19 415.981C2122.65 414.227 2121.88 412.252 2121.88 410.059V368.274C2121.88 365.861 2122.65 363.887 2124.19 362.351C2125.72 360.816 2127.7 360.048 2130.11 360.048H2171.9C2174.09 360.048 2175.95 360.816 2177.49 362.351C2179.24 363.887 2180.12 365.861 2180.12 368.274V410.059C2180.12 412.252 2179.24 414.227 2177.49 415.981C2175.95 417.517 2174.09 418.284 2171.9 418.284H2130.11Z" fill="black"/>
<path d="M1863.87 418.285C1861.67 418.285 1859.7 417.517 1857.95 415.982C1856.41 414.227 1855.64 412.253 1855.64 410.059V196.198C1855.64 193.785 1856.41 191.811 1857.95 190.276C1859.7 188.74 1861.67 187.973 1863.87 187.973H1899.4C1903.13 187.973 1905.87 188.96 1907.63 190.934C1909.38 192.689 1910.48 194.114 1910.92 195.211L1968.82 298.852L2026.73 195.211C2027.39 194.114 2028.49 192.689 2030.02 190.934C2031.78 188.96 2034.52 187.973 2038.25 187.973H2073.45C2075.86 187.973 2077.84 188.74 2079.37 190.276C2081.13 191.811 2082.01 193.785 2082.01 196.198V410.059C2082.01 412.253 2081.13 414.227 2079.37 415.982C2077.84 417.517 2075.86 418.285 2073.45 418.285H2034.3C2031.89 418.285 2029.8 417.517 2028.05 415.982C2026.51 414.227 2025.74 412.253 2025.74 410.059V286.678L1988.89 355.443C1987.8 357.417 1986.37 359.171 1984.62 360.707C1982.86 362.242 1980.45 363.01 1977.38 363.01H1960.27C1957.2 363.01 1954.79 362.242 1953.03 360.707C1951.28 359.171 1949.85 357.417 1948.75 355.443L1911.58 286.678V410.059C1911.58 412.253 1910.81 414.227 1909.27 415.982C1907.74 417.517 1905.76 418.285 1903.35 418.285H1863.87Z" fill="black"/>
<path d="M1731.82 421.575C1713.4 421.575 1697.83 418.614 1685.1 412.692C1672.6 406.769 1662.95 398.325 1656.15 387.357C1649.57 376.171 1645.84 362.9 1644.96 347.546C1644.74 343.159 1644.63 338.224 1644.63 332.74C1644.63 327.037 1644.74 322.102 1644.96 317.935C1645.84 302.361 1649.79 289.091 1656.81 278.124C1663.83 267.156 1673.59 258.712 1686.09 252.789C1698.81 246.867 1714.06 243.906 1731.82 243.906C1749.81 243.906 1765.06 246.867 1777.56 252.789C1790.28 258.712 1800.15 267.156 1807.17 278.124C1814.19 289.091 1818.14 302.361 1819.01 317.935C1819.23 322.102 1819.34 327.037 1819.34 332.74C1819.34 338.224 1819.23 343.159 1819.01 347.546C1818.14 362.9 1814.3 376.171 1807.5 387.357C1800.92 398.325 1791.27 406.769 1778.54 412.692C1766.04 418.614 1750.47 421.575 1731.82 421.575ZM1731.82 381.435C1741.69 381.435 1748.82 378.474 1753.21 372.552C1757.82 366.629 1760.45 357.746 1761.11 345.901C1761.33 342.611 1761.44 338.224 1761.44 332.74C1761.44 327.257 1761.33 322.87 1761.11 319.58C1760.45 307.954 1757.82 299.181 1753.21 293.258C1748.82 287.117 1741.69 284.046 1731.82 284.046C1722.39 284.046 1715.26 287.117 1710.44 293.258C1705.83 299.181 1703.31 307.954 1702.87 319.58C1702.65 322.87 1702.54 327.257 1702.54 332.74C1702.54 338.224 1702.65 342.611 1702.87 345.901C1703.31 357.746 1705.83 366.629 1710.44 372.552C1715.26 378.474 1722.39 381.435 1731.82 381.435Z" fill="black"/>
<path d="M1431.07 418.285C1428.66 418.285 1426.68 417.517 1425.15 415.982C1423.61 414.227 1422.84 412.253 1422.84 410.059V196.198C1422.84 193.785 1423.61 191.811 1425.15 190.276C1426.68 188.74 1428.66 187.973 1431.07 187.973H1531.42C1550.28 187.973 1565.75 190.605 1577.81 195.869C1589.87 201.133 1598.76 208.701 1604.46 218.571C1610.38 228.222 1613.34 239.738 1613.34 253.118C1613.34 261.015 1611.81 268.034 1608.74 274.175C1605.89 280.098 1602.27 285.033 1597.88 288.981C1593.71 292.929 1589.76 295.781 1586.04 297.535C1594.37 301.484 1601.72 307.954 1608.08 316.947C1614.66 325.941 1617.95 336.469 1617.95 348.533C1617.95 363.01 1614.66 375.513 1608.08 386.041C1601.72 396.35 1592.29 404.356 1579.78 410.059C1567.5 415.543 1552.37 418.285 1534.38 418.285H1431.07ZM1482.07 375.513H1527.8C1537.23 375.513 1544.36 372.771 1549.19 367.287C1554.01 361.804 1556.42 355.552 1556.42 348.533C1556.42 340.856 1553.9 334.385 1548.86 329.121C1544.03 323.857 1537.01 321.225 1527.8 321.225H1482.07V375.513ZM1482.07 279.439H1524.84C1533.83 279.439 1540.52 277.136 1544.91 272.53C1549.51 267.705 1551.82 261.782 1551.82 254.763C1551.82 247.744 1549.51 242.041 1544.91 237.654C1540.52 233.048 1533.83 230.745 1524.84 230.745H1482.07V279.439Z" fill="black"/>
<path d="M1203.58 418.285C1201.17 418.285 1199.2 417.517 1197.66 415.982C1196.13 414.227 1195.36 412.253 1195.36 410.059V196.198C1195.36 193.785 1196.13 191.811 1197.66 190.276C1199.2 188.74 1201.17 187.973 1203.58 187.973H1293.08C1321.59 187.973 1343.96 194.553 1360.2 207.714C1376.43 220.655 1384.54 239.08 1384.54 262.989C1384.54 278.562 1380.81 291.723 1373.36 302.471C1365.9 313.219 1356.03 321.334 1343.75 326.818L1388.82 407.756C1389.48 409.072 1389.81 410.279 1389.81 411.375C1389.81 413.13 1389.04 414.775 1387.5 416.311C1386.19 417.627 1384.65 418.285 1382.9 418.285H1339.14C1334.97 418.285 1331.9 417.298 1329.93 415.324C1327.95 413.13 1326.53 411.156 1325.65 409.401L1288.14 337.018H1254.58V410.059C1254.58 412.253 1253.7 414.227 1251.95 415.982C1250.41 417.517 1248.44 418.285 1246.03 418.285H1203.58ZM1254.58 290.297H1292.42C1302.73 290.297 1310.4 287.775 1315.45 282.73C1320.71 277.685 1323.35 270.885 1323.35 262.331C1323.35 253.776 1320.82 246.867 1315.78 241.603C1310.95 236.338 1303.17 233.706 1292.42 233.706H1254.58V290.297Z" fill="black"/>
<path d="M946.682 418.285C944.927 418.285 943.282 417.627 941.747 416.311C940.43 414.775 939.772 413.13 939.772 411.375C939.772 410.279 939.882 409.292 940.101 408.414L1017.42 197.185C1018.08 194.772 1019.39 192.689 1021.37 190.934C1023.56 188.96 1026.52 187.973 1030.25 187.973H1078.95C1082.68 187.973 1085.53 188.96 1087.5 190.934C1089.69 192.689 1091.12 194.772 1091.78 197.185L1168.77 408.414C1169.21 409.292 1169.43 410.279 1169.43 411.375C1169.43 413.13 1168.66 414.775 1167.12 416.311C1165.81 417.627 1164.16 418.285 1162.19 418.285H1121.72C1118.43 418.285 1115.91 417.517 1114.15 415.982C1112.62 414.227 1111.63 412.692 1111.19 411.375L1098.36 377.816H1010.51L998.009 411.375C997.57 412.692 996.583 414.227 995.047 415.982C993.512 417.517 990.88 418.285 987.151 418.285H946.682ZM1024 330.437H1085.2L1054.6 243.577L1024 330.437Z" fill="black"/>
<path d="M877.172 439.671C873.663 439.671 870.921 438.684 868.947 436.71C867.192 434.955 865.766 433.42 864.67 432.104L853.483 417.298C844.929 420.149 835.168 421.575 824.201 421.575C804.021 421.575 786.473 418.285 771.558 411.705C756.862 405.124 745.236 395.254 736.682 382.093C728.347 368.713 723.85 352.043 723.192 332.082C722.973 322.651 722.863 313.219 722.863 303.787C722.863 294.136 722.973 284.594 723.192 275.162C723.85 255.421 728.457 238.861 737.011 225.481C745.565 211.881 757.3 201.682 772.216 194.882C787.131 188.082 804.46 184.683 824.201 184.683C844.161 184.683 861.599 188.082 876.514 194.882C891.43 201.682 903.165 211.881 911.719 225.481C920.493 238.861 925.099 255.421 925.538 275.162C925.977 284.594 926.196 294.136 926.196 303.787C926.196 313.219 925.977 322.651 925.538 332.082C924.441 359.281 916.545 380.338 901.849 395.254L925.867 429.472C926.086 429.691 926.306 430.13 926.525 430.788C926.744 431.446 926.854 432.104 926.854 432.762C927.073 434.516 926.525 436.052 925.209 437.368C923.893 438.903 922.248 439.671 920.274 439.671H877.172ZM824.201 374.197C835.826 374.197 845.258 370.687 852.496 363.668C859.954 356.649 863.902 345.462 864.341 330.108C864.779 320.457 864.999 311.354 864.999 302.8C864.999 294.245 864.779 285.362 864.341 276.149C864.121 265.84 862.257 257.505 858.747 251.144C855.238 244.564 850.522 239.738 844.6 236.667C838.897 233.597 832.097 232.061 824.201 232.061C816.743 232.061 810.053 233.597 804.131 236.667C798.208 239.738 793.492 244.564 789.983 251.144C786.693 257.505 784.828 265.84 784.39 276.149C784.17 285.362 784.061 294.245 784.061 302.8C784.061 311.354 784.17 320.457 784.39 330.108C785.048 345.462 788.996 356.649 796.234 363.668C803.473 370.687 812.795 374.197 824.201 374.197Z" fill="black"/>
<path d="M69.7115 178.922L329.01 29.2161L588.307 178.922V478.333L329.009 628.039L69.7115 478.333V178.922Z" stroke="#9558B2" stroke-width="50"/>
<path fill-rule="evenodd" clip-rule="evenodd" d="M110.523 461.345L110.523 195.911H152.626L152.626 461.345H110.523Z" fill="#CB3C33"/>
<path fill-rule="evenodd" clip-rule="evenodd" d="M323.316 73.0542L553.188 205.771L532.137 242.233L302.264 109.517L323.316 73.0542Z" fill="#4063D8"/>
<path fill-rule="evenodd" clip-rule="evenodd" d="M553.189 451.484L323.317 584.201L302.266 547.738L532.138 415.021L553.189 451.484Z" fill="#389826"/>
<path d="M2323.25 418.285C2320.84 418.285 2318.86 417.517 2317.33 415.982C2315.79 414.227 2315.02 412.253 2315.02 410.06V192.908C2315.02 190.495 2315.79 188.521 2317.33 186.986C2318.86 185.45 2320.84 184.683 2323.25 184.683H2362.07C2364.49 184.683 2366.46 185.45 2368 186.986C2369.53 188.521 2370.3 190.495 2370.3 192.908V410.06C2370.3 412.253 2369.53 414.227 2368 415.982C2366.46 417.517 2364.49 418.285 2362.07 418.285H2323.25Z" fill="black"/>
<path d="M2186.8 480.798C2184.38 480.798 2182.41 479.921 2180.87 478.166C2179.34 476.631 2178.57 474.766 2178.57 472.573V445.922C2178.57 443.509 2179.34 441.535 2180.87 440C2182.41 438.464 2184.38 437.697 2186.8 437.697H2198.97C2204.45 437.697 2208.62 436.6 2211.47 434.407C2214.32 432.433 2216.3 429.581 2217.39 425.852C2218.49 422.343 2219.04 418.285 2219.04 413.679V255.421C2219.04 253.008 2219.81 251.034 2221.34 249.499C2223.1 247.963 2225.07 247.196 2227.26 247.196H2268.06C2270.48 247.196 2272.45 247.963 2273.99 249.499C2275.52 251.034 2276.29 253.008 2276.29 255.421V414.995C2276.29 429.252 2273.44 441.206 2267.73 450.857C2262.25 460.728 2254.24 468.186 2243.72 473.231C2233.19 478.276 2220.36 480.798 2205.22 480.798H2186.8ZM2226.94 222.519C2224.74 222.519 2222.77 221.752 2221.01 220.216C2219.48 218.681 2218.71 216.707 2218.71 214.294V184.682C2218.71 182.489 2219.48 180.625 2221.01 179.089C2222.77 177.334 2224.74 176.457 2226.94 176.457H2268.39C2270.59 176.457 2272.45 177.334 2273.99 179.089C2275.74 180.625 2276.62 182.489 2276.62 184.682V214.294C2276.62 216.707 2275.74 218.681 2273.99 220.216C2272.45 221.752 2270.59 222.519 2268.39 222.519H2226.94Z" fill="black"/>
<path d="M2130.11 418.284C2127.7 418.284 2125.72 417.517 2124.19 415.981C2122.65 414.227 2121.88 412.252 2121.88 410.059V368.274C2121.88 365.861 2122.65 363.887 2124.19 362.351C2125.72 360.816 2127.7 360.048 2130.11 360.048H2171.9C2174.09 360.048 2175.95 360.816 2177.49 362.351C2179.24 363.887 2180.12 365.861 2180.12 368.274V410.059C2180.12 412.252 2179.24 414.227 2177.49 415.981C2175.95 417.517 2174.09 418.284 2171.9 418.284H2130.11Z" fill="black"/>
<path d="M1863.87 418.285C1861.67 418.285 1859.7 417.517 1857.95 415.982C1856.41 414.227 1855.64 412.253 1855.64 410.059V196.198C1855.64 193.785 1856.41 191.811 1857.95 190.276C1859.7 188.74 1861.67 187.973 1863.87 187.973H1899.4C1903.13 187.973 1905.87 188.96 1907.63 190.934C1909.38 192.689 1910.48 194.114 1910.92 195.211L1968.82 298.852L2026.73 195.211C2027.39 194.114 2028.49 192.689 2030.02 190.934C2031.78 188.96 2034.52 187.973 2038.25 187.973H2073.45C2075.86 187.973 2077.84 188.74 2079.37 190.276C2081.13 191.811 2082.01 193.785 2082.01 196.198V410.059C2082.01 412.253 2081.13 414.227 2079.37 415.982C2077.84 417.517 2075.86 418.285 2073.45 418.285H2034.3C2031.89 418.285 2029.8 417.517 2028.05 415.982C2026.51 414.227 2025.74 412.253 2025.74 410.059V286.678L1988.89 355.443C1987.8 357.417 1986.37 359.171 1984.62 360.707C1982.86 362.242 1980.45 363.01 1977.38 363.01H1960.27C1957.2 363.01 1954.79 362.242 1953.03 360.707C1951.28 359.171 1949.85 357.417 1948.75 355.443L1911.58 286.678V410.059C1911.58 412.253 1910.81 414.227 1909.27 415.982C1907.74 417.517 1905.76 418.285 1903.35 418.285H1863.87Z" fill="black"/>
<path d="M1731.82 421.575C1713.4 421.575 1697.83 418.614 1685.1 412.692C1672.6 406.769 1662.95 398.325 1656.15 387.357C1649.57 376.171 1645.84 362.9 1644.96 347.546C1644.74 343.159 1644.63 338.224 1644.63 332.74C1644.63 327.037 1644.74 322.102 1644.96 317.935C1645.84 302.361 1649.79 289.091 1656.81 278.124C1663.83 267.156 1673.59 258.712 1686.09 252.789C1698.81 246.867 1714.06 243.906 1731.82 243.906C1749.81 243.906 1765.06 246.867 1777.56 252.789C1790.28 258.712 1800.15 267.156 1807.17 278.124C1814.19 289.091 1818.14 302.361 1819.01 317.935C1819.23 322.102 1819.34 327.037 1819.34 332.74C1819.34 338.224 1819.23 343.159 1819.01 347.546C1818.14 362.9 1814.3 376.171 1807.5 387.357C1800.92 398.325 1791.27 406.769 1778.54 412.692C1766.04 418.614 1750.47 421.575 1731.82 421.575ZM1731.82 381.435C1741.69 381.435 1748.82 378.474 1753.21 372.552C1757.82 366.629 1760.45 357.746 1761.11 345.901C1761.33 342.611 1761.44 338.224 1761.44 332.74C1761.44 327.257 1761.33 322.87 1761.11 319.58C1760.45 307.954 1757.82 299.181 1753.21 293.258C1748.82 287.117 1741.69 284.046 1731.82 284.046C1722.39 284.046 1715.26 287.117 1710.44 293.258C1705.83 299.181 1703.31 307.954 1702.87 319.58C1702.65 322.87 1702.54 327.257 1702.54 332.74C1702.54 338.224 1702.65 342.611 1702.87 345.901C1703.31 357.746 1705.83 366.629 1710.44 372.552C1715.26 378.474 1722.39 381.435 1731.82 381.435Z" fill="black"/>
<path d="M1431.07 418.285C1428.66 418.285 1426.68 417.517 1425.15 415.982C1423.61 414.227 1422.84 412.253 1422.84 410.059V196.198C1422.84 193.785 1423.61 191.811 1425.15 190.276C1426.68 188.74 1428.66 187.973 1431.07 187.973H1531.42C1550.28 187.973 1565.75 190.605 1577.81 195.869C1589.87 201.133 1598.76 208.701 1604.46 218.571C1610.38 228.222 1613.34 239.738 1613.34 253.118C1613.34 261.015 1611.81 268.034 1608.74 274.175C1605.89 280.098 1602.27 285.033 1597.88 288.981C1593.71 292.929 1589.76 295.781 1586.04 297.535C1594.37 301.484 1601.72 307.954 1608.08 316.947C1614.66 325.941 1617.95 336.469 1617.95 348.533C1617.95 363.01 1614.66 375.513 1608.08 386.041C1601.72 396.35 1592.29 404.356 1579.78 410.059C1567.5 415.543 1552.37 418.285 1534.38 418.285H1431.07ZM1482.07 375.513H1527.8C1537.23 375.513 1544.36 372.771 1549.19 367.287C1554.01 361.804 1556.42 355.552 1556.42 348.533C1556.42 340.856 1553.9 334.385 1548.86 329.121C1544.03 323.857 1537.01 321.225 1527.8 321.225H1482.07V375.513ZM1482.07 279.439H1524.84C1533.83 279.439 1540.52 277.136 1544.91 272.53C1549.51 267.705 1551.82 261.782 1551.82 254.763C1551.82 247.744 1549.51 242.041 1544.91 237.654C1540.52 233.048 1533.83 230.745 1524.84 230.745H1482.07V279.439Z" fill="black"/>
<path d="M1203.58 418.285C1201.17 418.285 1199.2 417.517 1197.66 415.982C1196.13 414.227 1195.36 412.253 1195.36 410.059V196.198C1195.36 193.785 1196.13 191.811 1197.66 190.276C1199.2 188.74 1201.17 187.973 1203.58 187.973H1293.08C1321.59 187.973 1343.96 194.553 1360.2 207.714C1376.43 220.655 1384.54 239.08 1384.54 262.989C1384.54 278.562 1380.81 291.723 1373.36 302.471C1365.9 313.219 1356.03 321.334 1343.75 326.818L1388.82 407.756C1389.48 409.072 1389.81 410.279 1389.81 411.375C1389.81 413.13 1389.04 414.775 1387.5 416.311C1386.19 417.627 1384.65 418.285 1382.9 418.285H1339.14C1334.97 418.285 1331.9 417.298 1329.93 415.324C1327.95 413.13 1326.53 411.156 1325.65 409.401L1288.14 337.018H1254.58V410.059C1254.58 412.253 1253.7 414.227 1251.95 415.982C1250.41 417.517 1248.44 418.285 1246.03 418.285H1203.58ZM1254.58 290.297H1292.42C1302.73 290.297 1310.4 287.775 1315.45 282.73C1320.71 277.685 1323.35 270.885 1323.35 262.331C1323.35 253.776 1320.82 246.867 1315.78 241.603C1310.95 236.338 1303.17 233.706 1292.42 233.706H1254.58V290.297Z" fill="black"/>
<path d="M946.682 418.285C944.927 418.285 943.282 417.627 941.747 416.311C940.43 414.775 939.772 413.13 939.772 411.375C939.772 410.279 939.882 409.292 940.101 408.414L1017.42 197.185C1018.08 194.772 1019.39 192.689 1021.37 190.934C1023.56 188.96 1026.52 187.973 1030.25 187.973H1078.95C1082.68 187.973 1085.53 188.96 1087.5 190.934C1089.69 192.689 1091.12 194.772 1091.78 197.185L1168.77 408.414C1169.21 409.292 1169.43 410.279 1169.43 411.375C1169.43 413.13 1168.66 414.775 1167.12 416.311C1165.81 417.627 1164.16 418.285 1162.19 418.285H1121.72C1118.43 418.285 1115.91 417.517 1114.15 415.982C1112.62 414.227 1111.63 412.692 1111.19 411.375L1098.36 377.816H1010.51L998.009 411.375C997.57 412.692 996.583 414.227 995.047 415.982C993.512 417.517 990.88 418.285 987.151 418.285H946.682ZM1024 330.437H1085.2L1054.6 243.577L1024 330.437Z" fill="black"/>
<path d="M877.172 439.671C873.663 439.671 870.921 438.684 868.947 436.71C867.192 434.955 865.766 433.42 864.67 432.104L853.483 417.298C844.929 420.149 835.168 421.575 824.201 421.575C804.021 421.575 786.473 418.285 771.558 411.705C756.862 405.124 745.236 395.254 736.682 382.093C728.347 368.713 723.85 352.043 723.192 332.082C722.973 322.651 722.863 313.219 722.863 303.787C722.863 294.136 722.973 284.594 723.192 275.162C723.85 255.421 728.457 238.861 737.011 225.481C745.565 211.881 757.3 201.682 772.216 194.882C787.131 188.082 804.46 184.683 824.201 184.683C844.161 184.683 861.599 188.082 876.514 194.882C891.43 201.682 903.165 211.881 911.719 225.481C920.493 238.861 925.099 255.421 925.538 275.162C925.977 284.594 926.196 294.136 926.196 303.787C926.196 313.219 925.977 322.651 925.538 332.082C924.441 359.281 916.545 380.338 901.849 395.254L925.867 429.472C926.086 429.691 926.306 430.13 926.525 430.788C926.744 431.446 926.854 432.104 926.854 432.762C927.073 434.516 926.525 436.052 925.209 437.368C923.893 438.903 922.248 439.671 920.274 439.671H877.172ZM824.201 374.197C835.826 374.197 845.258 370.687 852.496 363.668C859.954 356.649 863.902 345.462 864.341 330.108C864.779 320.457 864.999 311.354 864.999 302.8C864.999 294.245 864.779 285.362 864.341 276.149C864.121 265.84 862.257 257.505 858.747 251.144C855.238 244.564 850.522 239.738 844.6 236.667C838.897 233.597 832.097 232.061 824.201 232.061C816.743 232.061 810.053 233.597 804.131 236.667C798.208 239.738 793.492 244.564 789.983 251.144C786.693 257.505 784.828 265.84 784.39 276.149C784.17 285.362 784.061 294.245 784.061 302.8C784.061 311.354 784.17 320.457 784.39 330.108C785.048 345.462 788.996 356.649 796.234 363.668C803.473 370.687 812.795 374.197 824.201 374.197Z" fill="black"/>
</svg>
