<svg width="2371" height="658" viewBox="0 0 2371 658" fill="none" xmlns="http://www.w3.org/2000/svg">
<path d="M2323.09 418.714C2320.68 418.714 2318.71 417.946 2317.17 416.411C2315.64 414.656 2314.87 412.682 2314.87 410.489V193.337C2314.87 190.924 2315.64 188.95 2317.17 187.415C2318.71 185.88 2320.68 185.112 2323.09 185.112H2361.92C2364.33 185.112 2366.3 185.88 2367.84 187.415C2369.38 188.95 2370.14 190.924 2370.14 193.337V410.489C2370.14 412.682 2369.38 414.656 2367.84 416.411C2366.3 417.946 2364.33 418.714 2361.92 418.714H2323.09Z" fill="black"/>
<path d="M2186.64 481.227C2184.23 481.227 2182.25 480.35 2180.72 478.595C2179.18 477.06 2178.41 475.195 2178.41 473.002V446.351C2178.41 443.939 2179.18 441.965 2180.72 440.429C2182.25 438.894 2184.23 438.126 2186.64 438.126H2198.81C2204.3 438.126 2208.46 437.029 2211.32 434.836C2214.17 432.862 2216.14 430.01 2217.24 426.281C2218.33 422.772 2218.88 418.714 2218.88 414.108V255.85C2218.88 253.438 2219.65 251.463 2221.19 249.928C2222.94 248.393 2224.92 247.625 2227.11 247.625H2267.91C2270.32 247.625 2272.29 248.393 2273.83 249.928C2275.36 251.463 2276.13 253.438 2276.13 255.85V415.424C2276.13 429.681 2273.28 441.635 2267.58 451.287C2262.09 461.157 2254.09 468.615 2243.56 473.66C2233.03 478.705 2220.2 481.227 2205.06 481.227H2186.64ZM2226.78 222.949C2224.59 222.949 2222.61 222.181 2220.86 220.646C2219.32 219.11 2218.55 217.136 2218.55 214.723V185.112C2218.55 182.918 2219.32 181.054 2220.86 179.518C2222.61 177.764 2224.59 176.886 2226.78 176.886H2268.24C2270.43 176.886 2272.29 177.764 2273.83 179.518C2275.58 181.054 2276.46 182.918 2276.46 185.112V214.723C2276.46 217.136 2275.58 219.11 2273.83 220.646C2272.29 222.181 2270.43 222.949 2268.24 222.949H2226.78Z" fill="black"/>
<path d="M2129.95 418.714C2127.54 418.714 2125.57 417.946 2124.03 416.41C2122.5 414.656 2121.73 412.682 2121.73 410.488V368.703C2121.73 366.29 2122.5 364.316 2124.03 362.781C2125.57 361.245 2127.54 360.478 2129.95 360.478H2171.74C2173.93 360.478 2175.8 361.245 2177.33 362.781C2179.09 364.316 2179.96 366.29 2179.96 368.703V410.488C2179.96 412.682 2179.09 414.656 2177.33 416.41C2175.8 417.946 2173.93 418.714 2171.74 418.714H2129.95Z" fill="black"/>
<path d="M1863.71 418.714C1861.52 418.714 1859.54 417.946 1857.79 416.411C1856.25 414.656 1855.49 412.682 1855.49 410.489V196.627C1855.49 194.214 1856.25 192.24 1857.79 190.705C1859.54 189.17 1861.52 188.402 1863.71 188.402H1899.25C1902.97 188.402 1905.72 189.389 1907.47 191.363C1909.23 193.118 1910.32 194.544 1910.76 195.64L1968.67 299.281L2026.58 195.64C2027.23 194.544 2028.33 193.118 2029.87 191.363C2031.62 189.389 2034.36 188.402 2038.09 188.402H2073.3C2075.71 188.402 2077.68 189.17 2079.22 190.705C2080.97 192.24 2081.85 194.214 2081.85 196.627V410.489C2081.85 412.682 2080.97 414.656 2079.22 416.411C2077.68 417.946 2075.71 418.714 2073.3 418.714H2034.14C2031.73 418.714 2029.65 417.946 2027.89 416.411C2026.36 414.656 2025.59 412.682 2025.59 410.489V287.107L1988.74 355.872C1987.64 357.846 1986.22 359.601 1984.46 361.136C1982.71 362.671 1980.29 363.439 1977.22 363.439H1960.11C1957.04 363.439 1954.63 362.671 1952.88 361.136C1951.12 359.601 1949.69 357.846 1948.6 355.872L1911.42 287.107V410.489C1911.42 412.682 1910.65 414.656 1909.12 416.411C1907.58 417.946 1905.61 418.714 1903.19 418.714H1863.71Z" fill="black"/>
<path d="M1731.67 422.004C1713.24 422.004 1697.67 419.043 1684.95 413.121C1672.45 407.199 1662.79 398.754 1655.99 387.787C1649.41 376.6 1645.68 363.33 1644.81 347.975C1644.59 343.589 1644.48 338.653 1644.48 333.17C1644.48 327.467 1644.59 322.531 1644.81 318.364C1645.68 302.79 1649.63 289.52 1656.65 278.553C1663.67 267.586 1673.43 259.141 1685.93 253.218C1698.66 247.296 1713.9 244.335 1731.67 244.335C1749.65 244.335 1764.9 247.296 1777.4 253.218C1790.12 259.141 1799.99 267.586 1807.01 278.553C1814.03 289.52 1817.98 302.79 1818.86 318.364C1819.08 322.531 1819.19 327.467 1819.19 333.17C1819.19 338.653 1819.08 343.589 1818.86 347.975C1817.98 363.33 1814.14 376.6 1807.34 387.787C1800.76 398.754 1791.11 407.199 1778.39 413.121C1765.89 419.043 1750.31 422.004 1731.67 422.004ZM1731.67 381.864C1741.54 381.864 1748.67 378.903 1753.05 372.981C1757.66 367.058 1760.29 358.175 1760.95 346.33C1761.17 343.04 1761.28 338.653 1761.28 333.17C1761.28 327.686 1761.17 323.299 1760.95 320.009C1760.29 308.384 1757.66 299.61 1753.05 293.688C1748.67 287.546 1741.54 284.475 1731.67 284.475C1722.24 284.475 1715.11 287.546 1710.28 293.688C1705.68 299.61 1703.15 308.384 1702.71 320.009C1702.5 323.299 1702.39 327.686 1702.39 333.17C1702.39 338.653 1702.5 343.04 1702.71 346.33C1703.15 358.175 1705.68 367.058 1710.28 372.981C1715.11 378.903 1722.24 381.864 1731.67 381.864Z" fill="black"/>
<path d="M1430.91 418.714C1428.5 418.714 1426.53 417.946 1424.99 416.411C1423.45 414.656 1422.69 412.682 1422.69 410.489V196.627C1422.69 194.214 1423.45 192.24 1424.99 190.705C1426.53 189.17 1428.5 188.402 1430.91 188.402H1531.26C1550.13 188.402 1565.59 191.034 1577.65 196.298C1589.72 201.563 1598.6 209.13 1604.3 219C1610.23 228.652 1613.19 240.167 1613.19 253.547C1613.19 261.444 1611.65 268.463 1608.58 274.604C1605.73 280.527 1602.11 285.462 1597.72 289.41C1593.56 293.358 1589.61 296.21 1585.88 297.965C1594.21 301.913 1601.56 308.384 1607.92 317.377C1614.5 326.37 1617.79 336.898 1617.79 348.962C1617.79 363.439 1614.5 375.942 1607.92 386.47C1601.56 396.78 1592.13 404.786 1579.63 410.489C1567.34 415.972 1552.21 418.714 1534.22 418.714H1430.91ZM1481.91 375.942H1527.64C1537.07 375.942 1544.2 373.2 1549.03 367.716C1553.85 362.233 1556.27 355.981 1556.27 348.962C1556.27 341.285 1553.75 334.815 1548.7 329.55C1543.87 324.286 1536.86 321.654 1527.64 321.654H1481.91V375.942ZM1481.91 279.869H1524.68C1533.68 279.869 1540.37 277.566 1544.75 272.959C1549.36 268.134 1551.66 262.211 1551.66 255.192C1551.66 248.173 1549.36 242.47 1544.75 238.083C1540.37 233.477 1533.68 231.174 1524.68 231.174H1481.91V279.869Z" fill="black"/>
<path d="M1203.43 418.714C1201.01 418.714 1199.04 417.946 1197.51 416.411C1195.97 414.656 1195.2 412.682 1195.2 410.489V196.627C1195.2 194.214 1195.97 192.24 1197.51 190.705C1199.04 189.17 1201.01 188.402 1203.43 188.402H1292.92C1321.44 188.402 1343.81 194.982 1360.04 208.143C1376.27 221.084 1384.39 239.509 1384.39 263.418C1384.39 278.991 1380.66 292.152 1373.2 302.9C1365.74 313.648 1355.87 321.764 1343.59 327.247L1388.66 408.185C1389.32 409.502 1389.65 410.708 1389.65 411.805C1389.65 413.559 1388.88 415.205 1387.35 416.74C1386.03 418.056 1384.5 418.714 1382.74 418.714H1338.98C1334.82 418.714 1331.74 417.727 1329.77 415.753C1327.8 413.559 1326.37 411.585 1325.49 409.831L1287.99 337.447H1254.43V410.489C1254.43 412.682 1253.55 414.656 1251.79 416.411C1250.26 417.946 1248.28 418.714 1245.87 418.714H1203.43ZM1254.43 290.726H1292.26C1302.57 290.726 1310.25 288.204 1315.29 283.159C1320.56 278.114 1323.19 271.314 1323.19 262.76C1323.19 254.205 1320.67 247.296 1315.62 242.032C1310.8 236.767 1303.01 234.135 1292.26 234.135H1254.43V290.726Z" fill="black"/>
<path d="M946.526 418.714C944.771 418.714 943.126 418.056 941.59 416.74C940.274 415.205 939.616 413.559 939.616 411.805C939.616 410.708 939.726 409.721 939.945 408.844L1017.26 197.614C1017.92 195.202 1019.24 193.118 1021.21 191.363C1023.41 189.389 1026.37 188.402 1030.1 188.402H1078.79C1082.52 188.402 1085.37 189.389 1087.35 191.363C1089.54 193.118 1090.96 195.202 1091.62 197.614L1168.61 408.844C1169.05 409.721 1169.27 410.708 1169.27 411.805C1169.27 413.559 1168.5 415.205 1166.97 416.74C1165.65 418.056 1164.01 418.714 1162.03 418.714H1121.56C1118.27 418.714 1115.75 417.946 1114 416.411C1112.46 414.656 1111.47 413.121 1111.03 411.805L1098.2 378.245H1010.35L997.852 411.805C997.414 413.121 996.427 414.656 994.891 416.411C993.356 417.946 990.724 418.714 986.995 418.714H946.526ZM1023.84 330.866H1085.04L1054.44 244.006L1023.84 330.866Z" fill="black"/>
<path d="M877.016 440.1C873.507 440.1 870.765 439.113 868.791 437.139C867.036 435.384 865.61 433.849 864.514 432.533L853.327 417.727C844.772 420.579 835.012 422.004 824.044 422.004C803.865 422.004 786.317 418.714 771.402 412.134C756.705 405.553 745.08 395.683 736.526 382.522C728.191 369.142 723.694 352.472 723.036 332.512C722.817 323.08 722.707 313.648 722.707 304.216C722.707 294.565 722.817 285.023 723.036 275.592C723.694 255.851 728.3 239.29 736.855 225.91C745.409 212.311 757.144 202.111 772.06 195.311C786.975 188.512 804.303 185.112 824.044 185.112C844.005 185.112 861.443 188.512 876.358 195.311C891.274 202.111 903.009 212.311 911.563 225.91C920.337 239.29 924.943 255.851 925.382 275.592C925.82 285.023 926.04 294.565 926.04 304.216C926.04 313.648 925.82 323.08 925.382 332.512C924.285 359.71 916.389 380.767 901.692 395.683L925.711 429.901C925.93 430.12 926.149 430.559 926.369 431.217C926.588 431.875 926.698 432.533 926.698 433.191C926.917 434.946 926.369 436.481 925.053 437.797C923.737 439.333 922.092 440.1 920.117 440.1H877.016ZM824.044 374.626C835.67 374.626 845.101 371.116 852.34 364.097C859.798 357.078 863.746 345.892 864.184 330.537C864.623 320.886 864.843 311.783 864.843 303.229C864.843 294.675 864.623 285.791 864.184 276.579C863.965 266.269 862.101 257.934 858.591 251.573C855.082 244.993 850.366 240.167 844.443 237.097C838.74 234.026 831.941 232.49 824.044 232.49C816.587 232.49 809.897 234.026 803.974 237.097C798.052 240.167 793.336 244.993 789.827 251.573C786.536 257.934 784.672 266.269 784.233 276.579C784.014 285.791 783.904 294.675 783.904 303.229C783.904 311.783 784.014 320.886 784.233 330.537C784.891 345.892 788.84 357.078 796.078 364.097C803.316 371.116 812.638 374.626 824.044 374.626Z" fill="black"/>
<path d="M69.5553 179.351L328.853 29.6453L588.151 179.351V478.763L328.853 628.468L69.5553 478.763V179.351Z" stroke="#9558B2" stroke-width="50"/>
<path fill-rule="evenodd" clip-rule="evenodd" d="M110.367 461.774L110.367 196.34H152.47L152.47 461.774H110.367Z" fill="#CB3C33"/>
<path fill-rule="evenodd" clip-rule="evenodd" d="M323.16 73.4834L553.032 206.2L531.98 242.663L302.108 109.946L323.16 73.4834Z" fill="#4063D8"/>
<path fill-rule="evenodd" clip-rule="evenodd" d="M553.033 451.913L323.161 584.63L302.109 548.167L531.982 415.451L553.033 451.913Z" fill="#389826"/>
<path d="M2323.09 418.714C2320.68 418.714 2318.71 417.946 2317.17 416.411C2315.64 414.656 2314.87 412.682 2314.87 410.489V193.337C2314.87 190.924 2315.64 188.95 2317.17 187.415C2318.71 185.88 2320.68 185.112 2323.09 185.112H2361.92C2364.33 185.112 2366.3 185.88 2367.84 187.415C2369.38 188.95 2370.14 190.924 2370.14 193.337V410.489C2370.14 412.682 2369.38 414.656 2367.84 416.411C2366.3 417.946 2364.33 418.714 2361.92 418.714H2323.09Z" fill="white"/>
<path d="M2186.64 481.227C2184.23 481.227 2182.25 480.35 2180.72 478.595C2179.18 477.06 2178.41 475.195 2178.41 473.002V446.351C2178.41 443.939 2179.18 441.965 2180.72 440.429C2182.25 438.894 2184.23 438.126 2186.64 438.126H2198.81C2204.3 438.126 2208.46 437.029 2211.32 434.836C2214.17 432.862 2216.14 430.01 2217.24 426.281C2218.33 422.772 2218.88 418.714 2218.88 414.108V255.85C2218.88 253.438 2219.65 251.463 2221.19 249.928C2222.94 248.393 2224.92 247.625 2227.11 247.625H2267.91C2270.32 247.625 2272.29 248.393 2273.83 249.928C2275.36 251.463 2276.13 253.438 2276.13 255.85V415.424C2276.13 429.681 2273.28 441.635 2267.58 451.287C2262.09 461.157 2254.09 468.615 2243.56 473.66C2233.03 478.705 2220.2 481.227 2205.06 481.227H2186.64ZM2226.78 222.949C2224.59 222.949 2222.61 222.181 2220.86 220.646C2219.32 219.11 2218.55 217.136 2218.55 214.723V185.112C2218.55 182.918 2219.32 181.054 2220.86 179.518C2222.61 177.764 2224.59 176.886 2226.78 176.886H2268.24C2270.43 176.886 2272.29 177.764 2273.83 179.518C2275.58 181.054 2276.46 182.918 2276.46 185.112V214.723C2276.46 217.136 2275.58 219.11 2273.83 220.646C2272.29 222.181 2270.43 222.949 2268.24 222.949H2226.78Z" fill="white"/>
<path d="M2129.95 418.714C2127.54 418.714 2125.57 417.946 2124.03 416.41C2122.5 414.656 2121.73 412.682 2121.73 410.488V368.703C2121.73 366.29 2122.5 364.316 2124.03 362.781C2125.57 361.245 2127.54 360.478 2129.95 360.478H2171.74C2173.93 360.478 2175.8 361.245 2177.33 362.781C2179.09 364.316 2179.96 366.29 2179.96 368.703V410.488C2179.96 412.682 2179.09 414.656 2177.33 416.41C2175.8 417.946 2173.93 418.714 2171.74 418.714H2129.95Z" fill="white"/>
<path d="M1863.71 418.714C1861.52 418.714 1859.54 417.946 1857.79 416.411C1856.25 414.656 1855.49 412.682 1855.49 410.489V196.627C1855.49 194.214 1856.25 192.24 1857.79 190.705C1859.54 189.17 1861.52 188.402 1863.71 188.402H1899.25C1902.97 188.402 1905.72 189.389 1907.47 191.363C1909.23 193.118 1910.32 194.544 1910.76 195.64L1968.67 299.281L2026.58 195.64C2027.23 194.544 2028.33 193.118 2029.87 191.363C2031.62 189.389 2034.36 188.402 2038.09 188.402H2073.3C2075.71 188.402 2077.68 189.17 2079.22 190.705C2080.97 192.24 2081.85 194.214 2081.85 196.627V410.489C2081.85 412.682 2080.97 414.656 2079.22 416.411C2077.68 417.946 2075.71 418.714 2073.3 418.714H2034.14C2031.73 418.714 2029.65 417.946 2027.89 416.411C2026.36 414.656 2025.59 412.682 2025.59 410.489V287.107L1988.74 355.872C1987.64 357.846 1986.22 359.601 1984.46 361.136C1982.71 362.671 1980.29 363.439 1977.22 363.439H1960.11C1957.04 363.439 1954.63 362.671 1952.88 361.136C1951.12 359.601 1949.69 357.846 1948.6 355.872L1911.42 287.107V410.489C1911.42 412.682 1910.65 414.656 1909.12 416.411C1907.58 417.946 1905.61 418.714 1903.19 418.714H1863.71Z" fill="white"/>
<path d="M1731.67 422.004C1713.24 422.004 1697.67 419.043 1684.95 413.121C1672.45 407.199 1662.79 398.754 1655.99 387.787C1649.41 376.6 1645.68 363.33 1644.81 347.975C1644.59 343.589 1644.48 338.653 1644.48 333.17C1644.48 327.467 1644.59 322.531 1644.81 318.364C1645.68 302.79 1649.63 289.52 1656.65 278.553C1663.67 267.586 1673.43 259.141 1685.93 253.218C1698.66 247.296 1713.9 244.335 1731.67 244.335C1749.65 244.335 1764.9 247.296 1777.4 253.218C1790.12 259.141 1799.99 267.586 1807.01 278.553C1814.03 289.52 1817.98 302.79 1818.86 318.364C1819.08 322.531 1819.19 327.467 1819.19 333.17C1819.19 338.653 1819.08 343.589 1818.86 347.975C1817.98 363.33 1814.14 376.6 1807.34 387.787C1800.76 398.754 1791.11 407.199 1778.39 413.121C1765.89 419.043 1750.31 422.004 1731.67 422.004ZM1731.67 381.864C1741.54 381.864 1748.67 378.903 1753.05 372.981C1757.66 367.058 1760.29 358.175 1760.95 346.33C1761.17 343.04 1761.28 338.653 1761.28 333.17C1761.28 327.686 1761.17 323.299 1760.95 320.009C1760.29 308.384 1757.66 299.61 1753.05 293.688C1748.67 287.546 1741.54 284.475 1731.67 284.475C1722.24 284.475 1715.11 287.546 1710.28 293.688C1705.68 299.61 1703.15 308.384 1702.71 320.009C1702.5 323.299 1702.39 327.686 1702.39 333.17C1702.39 338.653 1702.5 343.04 1702.71 346.33C1703.15 358.175 1705.68 367.058 1710.28 372.981C1715.11 378.903 1722.24 381.864 1731.67 381.864Z" fill="white"/>
<path d="M1430.91 418.714C1428.5 418.714 1426.53 417.946 1424.99 416.411C1423.45 414.656 1422.69 412.682 1422.69 410.489V196.627C1422.69 194.214 1423.45 192.24 1424.99 190.705C1426.53 189.17 1428.5 188.402 1430.91 188.402H1531.26C1550.13 188.402 1565.59 191.034 1577.65 196.298C1589.72 201.563 1598.6 209.13 1604.3 219C1610.23 228.652 1613.19 240.167 1613.19 253.547C1613.19 261.444 1611.65 268.463 1608.58 274.604C1605.73 280.527 1602.11 285.462 1597.72 289.41C1593.56 293.358 1589.61 296.21 1585.88 297.965C1594.21 301.913 1601.56 308.384 1607.92 317.377C1614.5 326.37 1617.79 336.898 1617.79 348.962C1617.79 363.439 1614.5 375.942 1607.92 386.47C1601.56 396.78 1592.13 404.786 1579.63 410.489C1567.34 415.972 1552.21 418.714 1534.22 418.714H1430.91ZM1481.91 375.942H1527.64C1537.07 375.942 1544.2 373.2 1549.03 367.716C1553.85 362.233 1556.27 355.981 1556.27 348.962C1556.27 341.285 1553.75 334.815 1548.7 329.55C1543.87 324.286 1536.86 321.654 1527.64 321.654H1481.91V375.942ZM1481.91 279.869H1524.68C1533.68 279.869 1540.37 277.566 1544.75 272.959C1549.36 268.134 1551.66 262.211 1551.66 255.192C1551.66 248.173 1549.36 242.47 1544.75 238.083C1540.37 233.477 1533.68 231.174 1524.68 231.174H1481.91V279.869Z" fill="white"/>
<path d="M1203.43 418.714C1201.01 418.714 1199.04 417.946 1197.51 416.411C1195.97 414.656 1195.2 412.682 1195.2 410.489V196.627C1195.2 194.214 1195.97 192.24 1197.51 190.705C1199.04 189.17 1201.01 188.402 1203.43 188.402H1292.92C1321.44 188.402 1343.81 194.982 1360.04 208.143C1376.27 221.084 1384.39 239.509 1384.39 263.418C1384.39 278.991 1380.66 292.152 1373.2 302.9C1365.74 313.648 1355.87 321.764 1343.59 327.247L1388.66 408.185C1389.32 409.502 1389.65 410.708 1389.65 411.805C1389.65 413.559 1388.88 415.205 1387.35 416.74C1386.03 418.056 1384.5 418.714 1382.74 418.714H1338.98C1334.82 418.714 1331.74 417.727 1329.77 415.753C1327.8 413.559 1326.37 411.585 1325.49 409.831L1287.99 337.447H1254.43V410.489C1254.43 412.682 1253.55 414.656 1251.79 416.411C1250.26 417.946 1248.28 418.714 1245.87 418.714H1203.43ZM1254.43 290.726H1292.26C1302.57 290.726 1310.25 288.204 1315.29 283.159C1320.56 278.114 1323.19 271.314 1323.19 262.76C1323.19 254.205 1320.67 247.296 1315.62 242.032C1310.8 236.767 1303.01 234.135 1292.26 234.135H1254.43V290.726Z" fill="white"/>
<path d="M946.526 418.714C944.771 418.714 943.126 418.056 941.59 416.74C940.274 415.205 939.616 413.559 939.616 411.805C939.616 410.708 939.726 409.721 939.945 408.844L1017.26 197.614C1017.92 195.202 1019.24 193.118 1021.21 191.363C1023.41 189.389 1026.37 188.402 1030.1 188.402H1078.79C1082.52 188.402 1085.37 189.389 1087.35 191.363C1089.54 193.118 1090.96 195.202 1091.62 197.614L1168.61 408.844C1169.05 409.721 1169.27 410.708 1169.27 411.805C1169.27 413.559 1168.5 415.205 1166.97 416.74C1165.65 418.056 1164.01 418.714 1162.03 418.714H1121.56C1118.27 418.714 1115.75 417.946 1114 416.411C1112.46 414.656 1111.47 413.121 1111.03 411.805L1098.2 378.245H1010.35L997.852 411.805C997.414 413.121 996.427 414.656 994.891 416.411C993.356 417.946 990.724 418.714 986.995 418.714H946.526ZM1023.84 330.866H1085.04L1054.44 244.006L1023.84 330.866Z" fill="white"/>
<path d="M877.016 440.1C873.507 440.1 870.765 439.113 868.791 437.139C867.036 435.384 865.61 433.849 864.514 432.533L853.327 417.727C844.772 420.579 835.012 422.004 824.044 422.004C803.865 422.004 786.317 418.714 771.402 412.134C756.705 405.553 745.08 395.683 736.526 382.522C728.191 369.142 723.694 352.472 723.036 332.512C722.817 323.08 722.707 313.648 722.707 304.216C722.707 294.565 722.817 285.023 723.036 275.592C723.694 255.851 728.3 239.29 736.855 225.91C745.409 212.311 757.144 202.111 772.06 195.311C786.975 188.512 804.303 185.112 824.044 185.112C844.005 185.112 861.443 188.512 876.358 195.311C891.274 202.111 903.009 212.311 911.563 225.91C920.337 239.29 924.943 255.851 925.382 275.592C925.82 285.023 926.04 294.565 926.04 304.216C926.04 313.648 925.82 323.08 925.382 332.512C924.285 359.71 916.389 380.767 901.692 395.683L925.711 429.901C925.93 430.12 926.149 430.559 926.369 431.217C926.588 431.875 926.698 432.533 926.698 433.191C926.917 434.946 926.369 436.481 925.053 437.797C923.737 439.333 922.092 440.1 920.117 440.1H877.016ZM824.044 374.626C835.67 374.626 845.101 371.116 852.34 364.097C859.798 357.078 863.746 345.892 864.184 330.537C864.623 320.886 864.843 311.783 864.843 303.229C864.843 294.675 864.623 285.791 864.184 276.579C863.965 266.269 862.101 257.934 858.591 251.573C855.082 244.993 850.366 240.167 844.443 237.097C838.74 234.026 831.941 232.49 824.044 232.49C816.587 232.49 809.897 234.026 803.974 237.097C798.052 240.167 793.336 244.993 789.827 251.573C786.536 257.934 784.672 266.269 784.233 276.579C784.014 285.791 783.904 294.675 783.904 303.229C783.904 311.783 784.014 320.886 784.233 330.537C784.891 345.892 788.84 357.078 796.078 364.097C803.316 371.116 812.638 374.626 824.044 374.626Z" fill="white"/>
</svg>
