<svg width="6082" height="1588" viewBox="0 0 6082 1588" fill="none" xmlns="http://www.w3.org/2000/svg">
<path d="M349.9 795.638L853.645 416.5L496.238 685.498L349.9 795.638Z" fill="#9558B2"/>
<path d="M496.238 907.15L853.646 1179.5L349.9 795.638L496.238 907.15Z" fill="#CB3C33"/>
<path d="M853.645 416.5L0.645508 0.5L349.9 483.233L853.645 416.5Z" fill="#389826"/>
<path d="M0.645508 1587.5L853.646 1179.5L349.9 1108.04L0.645508 1587.5Z" fill="#4063D8"/>
<path d="M496.238 685.498L853.645 416.5L349.9 483.233L496.238 685.498Z" fill="#CB3C33"/>
<path fill-rule="evenodd" clip-rule="evenodd" d="M0.645508 529.5L349.9 483.233L496.238 685.498L349.9 795.638L0.645508 529.5Z" fill="#CB3C33"/>
<path d="M496.238 907.15L349.9 795.638L0.645508 1058.5L349.9 1108.04L496.238 907.15Z" fill="#9558B2"/>
<path d="M853.646 1179.5L496.238 907.15L349.9 1108.04L853.646 1179.5Z" fill="#9558B2"/>
<path d="M1357.39 792.362L853.646 1171.5L1211.05 902.502L1357.39 792.362Z" fill="#9558B2"/>
<path d="M1211.05 680.85L853.646 408.5L1357.39 792.362L1211.05 680.85Z" fill="#CB3C33"/>
<path d="M853.646 1171.5L1706.65 1587.5L1357.39 1104.77L853.646 1171.5Z" fill="#389826"/>
<path d="M1706.65 0.500095L853.646 408.5L1357.39 479.957L1706.65 0.500095Z" fill="#4063D8"/>
<path d="M1211.05 902.502L853.646 1171.5L1357.39 1104.77L1211.05 902.502Z" fill="#CB3C33"/>
<path fill-rule="evenodd" clip-rule="evenodd" d="M1706.65 1058.5L1357.39 1104.77L1211.05 902.502L1357.39 792.362L1706.65 1058.5Z" fill="#CB3C33"/>
<path d="M1211.05 680.85L1357.39 792.362L1706.65 529.5L1357.39 479.957L1211.05 680.85Z" fill="#9558B2"/>
<path d="M853.646 408.5L1211.05 680.85L1357.39 479.957L853.646 408.5Z" fill="#9558B2"/>
<path d="M6070.96 1051.05C6022.56 1049.93 5988.23 1039.52 5967.97 1019.82C5947.71 1000.12 5937.58 969.45 5937.58 927.804V401.038L6016.08 387.531V915.142C6016.08 928.086 6017.21 938.778 6019.46 947.22C6021.71 955.662 6025.37 962.415 6030.44 967.48C6035.5 972.546 6042.25 976.485 6050.7 979.299C6059.14 981.55 6069.55 983.52 6081.93 985.208L6070.96 1051.05Z" fill="black"/>
<path d="M5653.99 1200.47C5647.24 1200.47 5638.52 1199.63 5627.82 1197.94C5617.13 1196.25 5608.12 1194 5600.81 1191.19L5610.94 1127.03C5616.57 1128.72 5623.04 1130.12 5630.35 1131.25C5637.67 1132.37 5644.42 1132.94 5650.62 1132.94C5677.63 1132.94 5696.76 1124.5 5708.02 1107.61C5719.84 1091.29 5725.75 1067.09 5725.75 1035.01V603.639H5804.26V1034.17C5804.26 1090.45 5791.31 1132.09 5765.42 1159.11C5740.1 1186.68 5702.95 1200.47 5653.99 1200.47ZM5764.58 524.286C5750.51 524.286 5738.41 519.784 5728.28 510.78C5718.71 501.212 5713.93 488.55 5713.93 472.792C5713.93 457.034 5718.71 444.652 5728.28 435.648C5738.41 426.081 5750.51 421.297 5764.58 421.297C5778.65 421.297 5790.47 426.081 5800.03 435.648C5810.16 444.652 5815.23 457.034 5815.23 472.792C5815.23 488.55 5810.16 501.212 5800.03 510.78C5790.47 519.784 5778.65 524.286 5764.58 524.286Z" fill="black"/>
<path d="M5610.86 997.029C5610.86 1012.22 5605.8 1025.45 5595.67 1036.7C5585.54 1047.96 5571.75 1053.59 5554.3 1053.59C5536.86 1053.59 5523.07 1047.96 5512.94 1036.7C5502.81 1025.45 5497.74 1012.22 5497.74 997.029C5497.74 981.833 5502.81 968.608 5512.94 957.352C5523.07 946.097 5536.86 940.469 5554.3 940.469C5571.75 940.469 5585.54 946.097 5595.67 957.352C5605.8 968.608 5610.86 981.833 5610.86 997.029Z" fill="black"/>
<path d="M5050.25 961.571C5044.62 948.064 5037.02 930.899 5027.46 910.076C5018.45 889.253 5008.6 866.742 4997.91 842.542C4987.22 818.342 4975.68 793.58 4963.3 768.255C4951.48 742.366 4940.23 718.167 4929.53 695.655C4918.84 672.581 4908.71 652.04 4899.14 634.031C4890.14 616.021 4882.82 602.233 4877.19 592.666C4871 659.074 4865.94 731.111 4862 808.775C4858.06 885.876 4854.68 963.822 4851.87 1042.61H4771.67C4773.92 991.961 4776.46 941.029 4779.27 889.816C4782.08 838.04 4785.18 787.389 4788.56 737.864C4792.49 687.776 4796.43 639.096 4800.37 591.822C4804.88 544.548 4809.66 499.806 4814.72 457.598H4886.48C4901.68 482.36 4918 511.625 4935.44 545.392C4952.89 579.159 4970.33 614.614 4987.78 651.758C5005.23 688.339 5022.11 725.202 5038.43 762.345C5054.75 798.926 5069.67 832.412 5083.17 862.802C5096.68 832.412 5111.59 798.926 5127.91 762.345C5144.24 725.202 5161.12 688.339 5178.56 651.758C5196.01 614.614 5213.46 579.159 5230.9 545.392C5248.35 511.625 5264.67 482.36 5279.87 457.598H5351.62C5370.76 646.13 5385.11 841.135 5394.67 1042.61H5314.48C5311.66 963.822 5308.29 885.876 5304.35 808.775C5300.41 731.111 5295.34 659.074 5289.15 592.666C5283.52 602.233 5275.93 616.021 5266.36 634.031C5257.35 652.04 5247.51 672.581 5236.81 695.655C5226.12 718.167 5214.58 742.366 5202.2 768.255C5190.38 793.58 5179.13 818.342 5168.43 842.542C5157.74 866.742 5147.61 889.253 5138.04 910.076C5129.04 930.899 5121.72 948.064 5116.1 961.571H5050.25Z" fill="black"/>
<path d="M4672.19 823.124C4672.19 858.017 4667.12 889.533 4656.99 917.672C4646.86 945.811 4632.51 970.011 4613.94 990.271C4595.93 1010.53 4574.26 1026.29 4548.94 1037.55C4523.61 1048.24 4496.04 1053.58 4466.21 1053.58C4436.38 1053.58 4408.81 1048.24 4383.48 1037.55C4358.15 1026.29 4336.21 1010.53 4317.63 990.271C4299.63 970.011 4285.56 945.811 4275.43 917.672C4265.3 889.533 4260.23 858.017 4260.23 823.124C4260.23 788.794 4265.3 757.56 4275.43 729.421C4285.56 700.719 4299.63 676.238 4317.63 655.977C4336.21 635.717 4358.15 620.241 4383.48 609.548C4408.81 598.292 4436.38 592.664 4466.21 592.664C4496.04 592.664 4523.61 598.292 4548.94 609.548C4574.26 620.241 4595.93 635.717 4613.94 655.977C4632.51 676.238 4646.86 700.719 4656.99 729.421C4667.12 757.56 4672.19 788.794 4672.19 823.124ZM4590.3 823.124C4590.3 773.599 4579.05 734.486 4556.54 705.784C4534.59 676.519 4504.48 661.887 4466.21 661.887C4427.94 661.887 4397.55 676.519 4375.04 705.784C4353.09 734.486 4342.12 773.599 4342.12 823.124C4342.12 872.649 4353.09 912.044 4375.04 941.309C4397.55 970.011 4427.94 984.362 4466.21 984.362C4504.48 984.362 4534.59 970.011 4556.54 941.309C4579.05 912.044 4590.3 872.649 4590.3 823.124Z" fill="black"/>
<path d="M3905.19 1047.68C3893.37 1047.68 3880.43 1047.39 3866.36 1046.83C3852.85 1046.27 3839.06 1045.42 3824.99 1044.3C3811.49 1043.17 3797.98 1041.77 3784.47 1040.08C3770.97 1038.39 3758.58 1036.14 3747.33 1033.33V466.039C3758.58 463.225 3770.97 460.973 3784.47 459.285C3797.98 457.597 3811.49 456.19 3824.99 455.064C3839.06 453.939 3852.85 453.094 3866.36 452.532C3879.86 451.969 3892.53 451.688 3904.34 451.688C3938.11 451.688 3969.63 454.22 3998.89 459.285C4028.72 464.35 4054.33 473.073 4075.71 485.455C4097.66 497.273 4114.83 513.031 4127.21 532.728C4139.59 552.426 4145.78 576.626 4145.78 605.328C4145.78 637.406 4138.18 663.857 4122.99 684.68C4107.79 704.94 4087.53 720.136 4062.21 730.266C4096.54 740.396 4123.83 756.435 4144.09 778.384C4164.35 800.332 4174.48 831.286 4174.48 871.243C4174.48 929.773 4152.81 973.951 4109.48 1003.78C4066.71 1033.04 3998.61 1047.68 3905.19 1047.68ZM3828.37 769.942V975.921C3834.56 976.484 3841.88 977.047 3850.32 977.609C3857.63 978.172 3866.08 978.735 3875.64 979.298C3885.77 979.298 3897.31 979.298 3910.25 979.298C3934.45 979.298 3957.25 977.891 3978.63 975.077C4000.58 971.7 4019.72 966.072 4036.04 958.193C4052.36 950.314 4065.3 939.34 4074.87 925.271C4085 911.201 4090.06 893.473 4090.06 872.087C4090.06 852.953 4086.41 836.913 4079.09 823.969C4071.77 810.463 4061.08 799.77 4047.01 791.891C4033.5 784.012 4017.18 778.384 3998.05 775.007C3978.91 771.63 3957.53 769.942 3933.89 769.942H3828.37ZM3828.37 704.096H3914.48C3934.74 704.096 3953.87 702.689 3971.88 699.875C3989.89 697.061 4005.36 691.996 4018.31 684.68C4031.82 677.364 4042.23 667.797 4049.54 655.978C4057.42 644.16 4061.36 629.246 4061.36 611.237C4061.36 594.353 4057.42 580.284 4049.54 569.028C4041.66 557.21 4030.69 547.924 4016.62 541.17C4003.11 533.854 3987.07 528.508 3968.5 525.131C3949.93 521.754 3930.23 520.066 3909.41 520.066C3888.59 520.066 3872.27 520.347 3860.45 520.91C3848.63 521.473 3837.94 522.317 3828.37 523.443V704.096Z" fill="black"/>
<path d="M3502.6 797.8C3511.6 809.056 3522.86 823.969 3536.36 842.541C3550.43 860.55 3564.78 880.811 3579.42 903.322C3594.05 925.271 3608.4 948.345 3622.47 972.544C3637.1 996.744 3649.48 1020.1 3659.61 1042.61H3570.13C3558.88 1021.23 3546.49 999.558 3532.99 977.609C3520.04 955.661 3506.82 934.838 3493.31 915.14C3479.8 894.88 3466.3 876.027 3452.79 858.581C3439.85 841.134 3428.03 825.939 3417.33 812.995C3410.02 813.558 3402.42 813.839 3394.54 813.839C3387.23 813.839 3379.63 813.839 3371.75 813.839H3298.31V1042.61H3216.42V466.039C3239.5 460.411 3265.1 456.753 3293.24 455.064C3321.94 452.813 3348.11 451.688 3371.75 451.688C3453.92 451.688 3516.38 467.164 3559.16 498.117C3602.49 529.07 3624.16 575.219 3624.16 636.562C3624.16 675.394 3613.75 708.599 3592.92 736.175C3572.66 763.751 3542.55 784.293 3502.6 797.8ZM3378.5 523.443C3343.61 523.443 3316.88 524.287 3298.31 525.975V746.305H3356.55C3384.69 746.305 3410.02 744.898 3432.53 742.084C3455.04 739.27 3473.89 733.924 3489.09 726.045C3504.85 718.166 3516.95 707.192 3525.39 693.122C3533.83 678.49 3538.05 659.355 3538.05 635.718C3538.05 613.769 3533.83 595.479 3525.39 580.846C3516.95 566.214 3505.41 554.677 3490.78 546.235C3476.71 537.794 3459.83 531.884 3440.13 528.508C3420.99 525.131 3400.45 523.443 3378.5 523.443Z" fill="black"/>
<path d="M3047.51 1042.61C3037.95 1017.29 3028.94 992.524 3020.5 968.324C3012.06 943.562 3003.33 918.518 2994.33 893.193H2729.26L2676.08 1042.61H2590.81C2613.32 980.706 2634.43 923.583 2654.13 871.244C2673.82 818.342 2692.96 768.255 2711.53 720.981C2730.67 673.707 2749.52 628.684 2768.09 585.912C2786.66 542.578 2806.08 499.806 2826.34 457.598H2901.47C2921.73 499.806 2941.15 542.578 2959.72 585.912C2978.29 628.684 2996.86 673.707 3015.43 720.981C3034.57 768.255 3053.98 818.342 3073.68 871.244C3093.38 923.583 3114.48 980.706 3137 1042.61H3047.51ZM2970.69 825.659C2952.68 776.696 2934.67 729.422 2916.67 683.837C2899.22 637.689 2880.93 593.51 2861.79 551.301C2842.1 593.51 2823.24 637.689 2805.23 683.837C2787.79 729.422 2770.34 776.696 2752.9 825.659H2970.69Z" fill="black"/>
<path d="M1991.65 749.682C1991.65 699.594 1998.96 655.415 2013.59 617.146C2028.79 578.877 2049.05 547.079 2074.37 521.754C2100.26 495.866 2130.09 476.45 2163.86 463.506C2198.19 450.562 2234.49 444.09 2272.76 444.09C2310.46 444.09 2345.92 450.562 2379.12 463.506C2412.89 476.45 2442.44 495.866 2467.76 521.754C2493.09 547.079 2513.07 578.877 2527.7 617.146C2542.89 655.415 2550.49 699.594 2550.49 749.682C2550.49 793.579 2544.86 832.692 2533.61 867.022C2522.35 901.352 2506.59 931.18 2486.33 956.505C2466.64 981.267 2443.28 1001.53 2416.27 1017.29C2389.82 1032.48 2361.39 1042.89 2331 1048.52C2331.57 1061.46 2337.2 1072.72 2347.89 1082.29C2359.14 1092.42 2373.21 1100.86 2390.1 1107.61C2406.98 1114.37 2425.83 1119.99 2446.66 1124.5C2467.48 1129 2488.3 1132.38 2509.13 1134.63L2489.71 1198.78C2460.44 1194.84 2432.31 1189.5 2405.29 1182.74C2378.84 1176.55 2354.64 1168.11 2332.69 1157.42C2311.31 1146.73 2293.3 1132.94 2278.67 1116.05C2264.03 1099.73 2254.18 1079.19 2249.12 1054.43C2213.66 1052.18 2180.18 1044.02 2148.66 1029.95C2117.15 1015.32 2089.85 995.337 2066.78 970.012C2043.7 944.124 2025.41 912.889 2011.91 876.308C1998.4 839.727 1991.65 797.518 1991.65 749.682ZM2077.75 749.682C2077.75 785.137 2082.25 817.497 2091.26 846.762C2100.26 875.464 2112.93 899.945 2129.25 920.205C2146.13 940.466 2166.39 956.224 2190.03 967.479C2214.23 978.172 2241.24 983.519 2271.07 983.519C2300.9 983.519 2327.63 978.172 2351.26 967.479C2374.9 956.224 2394.88 940.466 2411.2 920.205C2428.08 899.945 2441.03 875.464 2450.03 846.762C2459.04 817.497 2463.54 785.137 2463.54 749.682C2463.54 714.226 2459.04 682.148 2450.03 653.446C2441.03 624.181 2428.08 599.418 2411.2 579.158C2394.88 558.898 2374.9 543.421 2351.26 532.728C2327.63 521.473 2300.9 515.845 2271.07 515.845C2241.24 515.845 2214.23 521.473 2190.03 532.728C2166.39 543.421 2146.13 558.898 2129.25 579.158C2112.93 599.418 2100.26 624.181 2091.26 653.446C2082.25 682.148 2077.75 714.226 2077.75 749.682Z" fill="black"/>
</svg>
