<svg width="6082" height="1587" viewBox="0 0 6082 1587" fill="none" xmlns="http://www.w3.org/2000/svg">
<path d="M349.255 795.138L853 416L495.592 684.998L349.255 795.138Z" fill="#9558B2"/>
<path d="M495.592 906.65L853 1179L349.255 795.138L495.592 906.65Z" fill="#CB3C33"/>
<path d="M853 416L0 0L349.255 482.733L853 416Z" fill="#389826"/>
<path d="M0 1587L853 1179L349.255 1107.54L0 1587Z" fill="#4063D8"/>
<path d="M495.592 684.998L853 416L349.255 482.733L495.592 684.998Z" fill="#CB3C33"/>
<path fill-rule="evenodd" clip-rule="evenodd" d="M0 529L349.255 482.733L495.592 684.998L349.255 795.138L0 529Z" fill="#CB3C33"/>
<path d="M495.592 906.65L349.255 795.138L0 1058L349.255 1107.54L495.592 906.65Z" fill="#9558B2"/>
<path d="M853 1179L495.592 906.65L349.255 1107.54L853 1179Z" fill="#9558B2"/>
<path d="M1356.75 791.862L853 1171L1210.41 902.002L1356.75 791.862Z" fill="#9558B2"/>
<path d="M1210.41 680.35L853 408L1356.75 791.862L1210.41 680.35Z" fill="#CB3C33"/>
<path d="M853 1171L1706 1587L1356.75 1104.27L853 1171Z" fill="#389826"/>
<path d="M1706 0.00012207L853 408L1356.75 479.457L1706 0.00012207Z" fill="#4063D8"/>
<path d="M1210.41 902.002L853 1171L1356.75 1104.27L1210.41 902.002Z" fill="#CB3C33"/>
<path fill-rule="evenodd" clip-rule="evenodd" d="M1706 1058L1356.75 1104.27L1210.41 902.002L1356.75 791.862L1706 1058Z" fill="#CB3C33"/>
<path d="M1210.41 680.35L1356.75 791.862L1706 529L1356.75 479.457L1210.41 680.35Z" fill="#9558B2"/>
<path d="M853 408L1210.41 680.35L1356.75 479.457L853 408Z" fill="#9558B2"/>
<path d="M6070.31 1050.55C6021.91 1049.43 5987.58 1039.02 5967.32 1019.32C5947.06 999.622 5936.93 968.95 5936.93 927.304V400.538L6015.44 387.031V914.641C6015.44 927.586 6016.56 938.278 6018.81 946.72C6021.07 955.162 6024.72 961.915 6029.79 966.98C6034.85 972.045 6041.61 975.985 6050.05 978.799C6058.49 981.05 6068.9 983.02 6081.28 984.708L6070.31 1050.55Z" fill="white"/>
<path d="M5653.35 1199.97C5646.59 1199.97 5637.87 1199.13 5627.18 1197.44C5616.48 1195.75 5607.48 1193.5 5600.16 1190.69L5610.29 1126.53C5615.92 1128.22 5622.39 1129.62 5629.71 1130.75C5637.02 1131.87 5643.78 1132.44 5649.97 1132.44C5676.98 1132.44 5696.12 1124 5707.37 1107.11C5719.19 1090.79 5725.1 1066.59 5725.1 1034.51V603.139H5803.61V1033.67C5803.61 1089.95 5790.66 1131.59 5764.78 1158.61C5739.45 1186.18 5702.31 1199.97 5653.35 1199.97ZM5763.93 523.786C5749.86 523.786 5737.76 519.284 5727.63 510.28C5718.07 500.712 5713.28 488.05 5713.28 472.292C5713.28 456.534 5718.07 444.152 5727.63 435.148C5737.76 425.581 5749.86 420.797 5763.93 420.797C5778 420.797 5789.82 425.581 5799.39 435.148C5809.52 444.152 5814.58 456.534 5814.58 472.292C5814.58 488.05 5809.52 500.712 5799.39 510.28C5789.82 519.284 5778 523.786 5763.93 523.786Z" fill="white"/>
<path d="M5610.22 996.529C5610.22 1011.72 5605.15 1024.95 5595.02 1036.2C5584.89 1047.46 5571.1 1053.09 5553.66 1053.09C5536.21 1053.09 5522.42 1047.46 5512.29 1036.2C5502.16 1024.95 5497.1 1011.72 5497.1 996.529C5497.1 981.333 5502.16 968.108 5512.29 956.852C5522.42 945.597 5536.21 939.969 5553.66 939.969C5571.1 939.969 5584.89 945.597 5595.02 956.852C5605.15 968.108 5610.22 981.333 5610.22 996.529Z" fill="white"/>
<path d="M5049.6 961.071C5043.98 947.564 5036.38 930.399 5026.81 909.576C5017.81 888.753 5007.96 866.242 4997.26 842.042C4986.57 817.842 4975.03 793.08 4962.65 767.755C4950.83 741.866 4939.58 717.667 4928.89 695.155C4918.19 672.081 4908.06 651.54 4898.5 633.531C4889.49 615.521 4882.18 601.733 4876.55 592.166C4870.36 658.574 4865.29 730.611 4861.35 808.275C4857.41 885.376 4854.04 963.322 4851.22 1042.11H4771.03C4773.28 991.461 4775.81 940.529 4778.62 889.316C4781.44 837.54 4784.53 786.889 4787.91 737.364C4791.85 687.276 4795.79 638.596 4799.73 591.322C4804.23 544.048 4809.01 499.306 4814.08 457.098H4885.83C4901.03 481.86 4917.35 511.125 4934.8 544.892C4952.24 578.659 4969.69 614.114 4987.13 651.258C5004.58 687.839 5021.46 724.702 5037.79 761.845C5054.11 798.426 5069.02 831.912 5082.53 862.302C5096.03 831.912 5110.95 798.426 5127.27 761.845C5143.59 724.702 5160.47 687.839 5177.92 651.258C5195.36 614.114 5212.81 578.659 5230.26 544.892C5247.7 511.125 5264.02 481.86 5279.22 457.098H5350.97C5370.11 645.63 5384.46 840.635 5394.03 1042.11H5313.83C5311.02 963.322 5307.64 885.376 5303.7 808.275C5299.76 730.611 5294.7 658.574 5288.51 592.166C5282.88 601.733 5275.28 615.521 5265.71 633.531C5256.71 651.54 5246.86 672.081 5236.17 695.155C5225.47 717.667 5213.94 741.866 5201.56 767.755C5189.74 793.08 5178.48 817.842 5167.79 842.042C5157.1 866.242 5146.97 888.753 5137.4 909.576C5128.39 930.399 5121.08 947.564 5115.45 961.071H5049.6Z" fill="white"/>
<path d="M4671.54 822.624C4671.54 857.517 4666.48 889.033 4656.35 917.172C4646.22 945.311 4631.87 969.511 4613.3 989.771C4595.29 1010.03 4573.62 1025.79 4548.29 1037.05C4522.97 1047.74 4495.39 1053.08 4465.56 1053.08C4435.74 1053.08 4408.16 1047.74 4382.84 1037.05C4357.51 1025.79 4335.56 1010.03 4316.99 989.771C4298.98 969.511 4284.91 945.311 4274.78 917.172C4264.65 889.033 4259.59 857.517 4259.59 822.624C4259.59 788.294 4264.65 757.06 4274.78 728.921C4284.91 700.219 4298.98 675.738 4316.99 655.477C4335.56 635.217 4357.51 619.741 4382.84 609.048C4408.16 597.792 4435.74 592.164 4465.56 592.164C4495.39 592.164 4522.97 597.792 4548.29 609.048C4573.62 619.741 4595.29 635.217 4613.3 655.477C4631.87 675.738 4646.22 700.219 4656.35 728.921C4666.48 757.06 4671.54 788.294 4671.54 822.624ZM4589.66 822.624C4589.66 773.099 4578.4 733.986 4555.89 705.284C4533.94 676.019 4503.83 661.387 4465.56 661.387C4427.3 661.387 4396.91 676.019 4374.39 705.284C4352.45 733.986 4341.47 773.099 4341.47 822.624C4341.47 872.149 4352.45 911.544 4374.39 940.809C4396.91 969.511 4427.3 983.862 4465.56 983.862C4503.83 983.862 4533.94 969.511 4555.89 940.809C4578.4 911.544 4589.66 872.149 4589.66 822.624Z" fill="white"/>
<path d="M3904.54 1047.18C3892.72 1047.18 3879.78 1046.89 3865.71 1046.33C3852.2 1045.77 3838.42 1044.92 3824.35 1043.8C3810.84 1042.67 3797.33 1041.27 3783.83 1039.58C3770.32 1037.89 3757.94 1035.64 3746.68 1032.83V465.539C3757.94 462.725 3770.32 460.473 3783.83 458.785C3797.33 457.097 3810.84 455.69 3824.35 454.564C3838.42 453.439 3852.2 452.594 3865.71 452.032C3879.22 451.469 3891.88 451.188 3903.7 451.188C3937.47 451.188 3968.98 453.72 3998.25 458.785C4028.07 463.85 4053.68 472.573 4075.07 484.955C4097.01 496.773 4114.18 512.531 4126.56 532.228C4138.94 551.926 4145.13 576.126 4145.13 604.828C4145.13 636.906 4137.54 663.357 4122.34 684.18C4107.14 704.44 4086.88 719.636 4061.56 729.766C4095.89 739.896 4123.18 755.935 4143.44 777.884C4163.7 799.832 4173.83 830.786 4173.83 870.743C4173.83 929.273 4152.17 973.451 4108.83 1003.28C4066.06 1032.54 3997.96 1047.18 3904.54 1047.18ZM3827.72 769.442V975.421C3833.91 975.984 3841.23 976.547 3849.67 977.109C3856.99 977.672 3865.43 978.235 3875 978.798C3885.13 978.798 3896.66 978.798 3909.61 978.798C3933.81 978.798 3956.6 977.391 3977.99 974.577C3999.93 971.2 4019.07 965.572 4035.39 957.693C4051.71 949.814 4064.65 938.84 4074.22 924.771C4084.35 910.701 4089.42 892.973 4089.42 871.587C4089.42 852.453 4085.76 836.413 4078.44 823.469C4071.13 809.963 4060.43 799.27 4046.36 791.391C4032.86 783.512 4016.54 777.884 3997.4 774.507C3978.27 771.13 3956.88 769.442 3933.24 769.442H3827.72ZM3827.72 703.596H3913.83C3934.09 703.596 3953.22 702.189 3971.23 699.375C3989.24 696.561 4004.72 691.496 4017.66 684.18C4031.17 676.864 4041.58 667.297 4048.9 655.478C4056.78 643.66 4060.72 628.746 4060.72 610.737C4060.72 593.853 4056.78 579.784 4048.9 568.528C4041.02 556.71 4030.04 547.424 4015.97 540.67C4002.47 533.354 3986.43 528.008 3967.86 524.631C3949.28 521.254 3929.59 519.566 3908.76 519.566C3887.94 519.566 3871.62 519.847 3859.8 520.41C3847.98 520.973 3837.29 521.817 3827.72 522.943V703.596Z" fill="white"/>
<path d="M3501.95 797.3C3510.96 808.556 3522.21 823.469 3535.72 842.041C3549.79 860.05 3564.14 880.311 3578.77 902.822C3593.4 924.771 3607.75 947.845 3621.82 972.044C3636.46 996.244 3648.84 1019.6 3658.97 1042.11H3569.49C3558.23 1020.73 3545.85 999.058 3532.34 977.109C3519.4 955.161 3506.17 934.338 3492.67 914.64C3479.16 894.38 3465.65 875.527 3452.14 858.081C3439.2 840.634 3427.38 825.439 3416.69 812.495C3409.37 813.058 3401.78 813.339 3393.9 813.339C3386.58 813.339 3378.98 813.339 3371.1 813.339H3297.66V1042.11H3215.78V465.539C3238.85 459.911 3264.46 456.253 3292.6 454.564C3321.3 452.313 3347.47 451.188 3371.1 451.188C3453.27 451.188 3515.74 466.664 3558.51 497.617C3601.85 528.57 3623.51 574.719 3623.51 636.062C3623.51 674.894 3613.1 708.099 3592.28 735.675C3572.02 763.251 3541.91 783.793 3501.95 797.3ZM3377.86 522.943C3342.96 522.943 3316.23 523.787 3297.66 525.475V745.805H3355.91C3384.05 745.805 3409.37 744.398 3431.88 741.584C3454.4 738.77 3473.25 733.424 3488.44 725.545C3504.2 717.666 3516.3 706.692 3524.74 692.622C3533.19 677.99 3537.41 658.855 3537.41 635.218C3537.41 613.269 3533.19 594.979 3524.74 580.346C3516.3 565.714 3504.77 554.177 3490.13 545.735C3476.06 537.294 3459.18 531.384 3439.48 528.008C3420.35 524.631 3399.81 522.943 3377.86 522.943Z" fill="white"/>
<path d="M3046.87 1042.11C3037.3 1016.79 3028.3 992.024 3019.85 967.824C3011.41 943.062 3002.69 918.018 2993.68 892.693H2728.61L2675.43 1042.11H2590.17C2612.68 980.206 2633.78 923.083 2653.48 870.744C2673.18 817.842 2692.31 767.755 2710.89 720.481C2730.02 673.207 2748.87 628.184 2767.45 585.412C2786.02 542.078 2805.43 499.306 2825.69 457.098H2900.82C2921.09 499.306 2940.5 542.078 2959.07 585.412C2977.64 628.184 2996.22 673.207 3014.79 720.481C3033.92 767.755 3053.34 817.842 3073.04 870.744C3092.73 923.083 3113.84 980.206 3136.35 1042.11H3046.87ZM2970.05 825.159C2952.04 776.196 2934.03 728.922 2916.02 683.337C2898.57 637.189 2880.28 593.01 2861.15 550.801C2841.45 593.01 2822.6 637.189 2804.59 683.337C2787.14 728.922 2769.7 776.196 2752.25 825.159H2970.05Z" fill="white"/>
<path d="M1991 749.182C1991 699.094 1998.32 654.915 2012.95 616.646C2028.14 578.377 2048.4 546.579 2073.73 521.254C2099.62 495.366 2129.44 475.95 2163.21 463.006C2197.54 450.062 2233.84 443.59 2272.11 443.59C2309.82 443.59 2345.27 450.062 2378.48 463.006C2412.24 475.95 2441.79 495.366 2467.12 521.254C2492.44 546.579 2512.42 578.377 2527.05 616.646C2542.25 654.915 2549.84 699.094 2549.84 749.182C2549.84 793.079 2544.22 832.192 2532.96 866.522C2521.71 900.852 2505.95 930.68 2485.69 956.005C2465.99 980.767 2442.63 1001.03 2415.62 1016.79C2389.17 1031.98 2360.75 1042.39 2330.36 1048.02C2330.92 1060.96 2336.55 1072.22 2347.24 1081.79C2358.5 1091.92 2372.57 1100.36 2389.45 1107.11C2406.33 1113.87 2425.19 1119.49 2446.01 1124C2466.83 1128.5 2487.66 1131.88 2508.48 1134.13L2489.06 1198.28C2459.8 1194.34 2431.66 1189 2404.65 1182.24C2378.2 1176.05 2354 1167.61 2332.05 1156.92C2310.66 1146.23 2292.65 1132.44 2278.02 1115.55C2263.39 1099.23 2253.54 1078.69 2248.47 1053.93C2213.02 1051.68 2179.53 1043.52 2148.02 1029.45C2116.5 1014.82 2089.21 994.837 2066.13 969.512C2043.06 943.624 2024.77 912.389 2011.26 875.808C1997.75 839.227 1991 797.018 1991 749.182ZM2077.11 749.182C2077.11 784.637 2081.61 816.997 2090.61 846.262C2099.62 874.964 2112.28 899.445 2128.6 919.705C2145.48 939.966 2165.74 955.724 2189.38 966.979C2213.58 977.672 2240.59 983.019 2270.42 983.019C2300.25 983.019 2326.98 977.672 2350.62 966.979C2374.26 955.724 2394.23 939.966 2410.56 919.705C2427.44 899.445 2440.38 874.964 2449.39 846.262C2458.39 816.997 2462.89 784.637 2462.89 749.182C2462.89 713.726 2458.39 681.648 2449.39 652.946C2440.38 623.681 2427.44 598.918 2410.56 578.658C2394.23 558.398 2374.26 542.921 2350.62 532.228C2326.98 520.973 2300.25 515.345 2270.42 515.345C2240.59 515.345 2213.58 520.973 2189.38 532.228C2165.74 542.921 2145.48 558.398 2128.6 578.658C2112.28 598.918 2099.62 623.681 2090.61 652.946C2081.61 681.648 2077.11 713.726 2077.11 749.182Z" fill="white"/>
</svg>
