<svg width="1706" height="1980" viewBox="0 0 1706 1980" fill="none" xmlns="http://www.w3.org/2000/svg">
<path d="M349.255 795.138L853 416L495.593 684.998L349.255 795.138Z" fill="#9558B2"/>
<path d="M495.593 906.65L853 1179L349.255 795.138L495.593 906.65Z" fill="#CB3C33"/>
<path d="M853 416L0 0L349.255 482.733L853 416Z" fill="#389826"/>
<path d="M0 1587L853 1179L349.255 1107.54L0 1587Z" fill="#4063D8"/>
<path d="M495.593 684.998L853 416L349.255 482.733L495.593 684.998Z" fill="#CB3C33"/>
<path fill-rule="evenodd" clip-rule="evenodd" d="M0 529L349.255 482.733L495.593 684.998L349.255 795.138L0 529Z" fill="#CB3C33"/>
<path d="M495.593 906.65L349.255 795.138L0 1058L349.255 1107.54L495.593 906.65Z" fill="#9558B2"/>
<path d="M853 1179L495.593 906.65L349.255 1107.54L853 1179Z" fill="#9558B2"/>
<path d="M1356.75 791.862L853 1171L1210.41 902.002L1356.75 791.862Z" fill="#9558B2"/>
<path d="M1210.41 680.35L853 408L1356.75 791.862L1210.41 680.35Z" fill="#CB3C33"/>
<path d="M853 1171L1706 1587L1356.75 1104.27L853 1171Z" fill="#389826"/>
<path d="M1706 9.45926e-05L853 408L1356.75 479.457L1706 9.45926e-05Z" fill="#4063D8"/>
<path d="M1210.41 902.002L853 1171L1356.75 1104.27L1210.41 902.002Z" fill="#CB3C33"/>
<path fill-rule="evenodd" clip-rule="evenodd" d="M1706 1058L1356.75 1104.27L1210.41 902.002L1356.75 791.862L1706 1058Z" fill="#CB3C33"/>
<path d="M1210.41 680.35L1356.75 791.862L1706 529L1356.75 479.457L1210.41 680.35Z" fill="#9558B2"/>
<path d="M853 408L1210.41 680.35L1356.75 479.457L853 408Z" fill="#9558B2"/>
<path d="M1657.28 1914.43C1654.78 1914.43 1652.74 1913.63 1651.15 1912.04C1649.56 1910.22 1648.76 1908.18 1648.76 1905.91V1681.04C1648.76 1678.54 1649.56 1676.49 1651.15 1674.9C1652.74 1673.31 1654.78 1672.52 1657.28 1672.52H1697.48C1699.98 1672.52 1702.03 1673.31 1703.62 1674.9C1705.21 1676.49 1706 1678.54 1706 1681.04V1905.91C1706 1908.18 1705.21 1910.22 1703.62 1912.04C1702.03 1913.63 1699.98 1914.43 1697.48 1914.43H1657.28Z" fill="#4063D8"/>
<path d="M1515.97 1979.16C1513.47 1979.16 1511.43 1978.25 1509.84 1976.43C1508.25 1974.84 1507.45 1972.91 1507.45 1970.64V1943.04C1507.45 1940.55 1508.25 1938.5 1509.84 1936.91C1511.43 1935.32 1513.47 1934.53 1515.97 1934.53H1528.58C1534.26 1934.53 1538.57 1933.39 1541.52 1931.12C1544.48 1929.07 1546.52 1926.12 1547.66 1922.26C1548.79 1918.63 1549.36 1914.42 1549.36 1909.65V1745.77C1549.36 1743.27 1550.16 1741.23 1551.75 1739.64C1553.56 1738.05 1555.61 1737.25 1557.88 1737.25H1600.13C1602.63 1737.25 1604.67 1738.05 1606.26 1739.64C1607.85 1741.23 1608.64 1743.27 1608.64 1745.77V1911.02C1608.64 1925.78 1605.69 1938.16 1599.79 1948.15C1594.11 1958.38 1585.82 1966.1 1574.91 1971.32C1564.01 1976.55 1550.72 1979.16 1535.05 1979.16H1515.97ZM1557.54 1711.7C1555.27 1711.7 1553.22 1710.9 1551.41 1709.31C1549.82 1707.72 1549.02 1705.68 1549.02 1703.18V1672.52C1549.02 1670.25 1549.82 1668.32 1551.41 1666.73C1553.22 1664.91 1555.27 1664 1557.54 1664H1600.47C1602.74 1664 1604.67 1664.91 1606.26 1666.73C1608.08 1668.32 1608.99 1670.25 1608.99 1672.52V1703.18C1608.99 1705.68 1608.08 1707.72 1606.26 1709.31C1604.67 1710.9 1602.74 1711.7 1600.47 1711.7H1557.54Z" fill="#4063D8"/>
<path d="M1457.27 1914.42C1454.77 1914.42 1452.73 1913.63 1451.14 1912.04C1449.55 1910.22 1448.75 1908.18 1448.75 1905.91V1862.64C1448.75 1860.14 1449.55 1858.09 1451.14 1856.5C1452.73 1854.91 1454.77 1854.12 1457.27 1854.12H1500.54C1502.81 1854.12 1504.74 1854.91 1506.33 1856.5C1508.15 1858.09 1509.06 1860.14 1509.06 1862.64V1905.91C1509.06 1908.18 1508.15 1910.22 1506.33 1912.04C1504.74 1913.63 1502.81 1914.42 1500.54 1914.42H1457.27Z" fill="#4063D8"/>
<path d="M1181.56 1914.42C1179.29 1914.42 1177.25 1913.63 1175.43 1912.04C1173.84 1910.22 1173.05 1908.18 1173.05 1905.91V1684.44C1173.05 1681.95 1173.84 1679.9 1175.43 1678.31C1177.25 1676.72 1179.29 1675.93 1181.56 1675.93H1218.36C1222.22 1675.93 1225.06 1676.95 1226.88 1678.99C1228.7 1680.81 1229.83 1682.29 1230.29 1683.42L1290.25 1790.75L1350.22 1683.42C1350.9 1682.29 1352.03 1680.81 1353.62 1678.99C1355.44 1676.95 1358.28 1675.93 1362.14 1675.93H1398.6C1401.1 1675.93 1403.14 1676.72 1404.73 1678.31C1406.55 1679.9 1407.46 1681.95 1407.46 1684.44V1905.91C1407.46 1908.18 1406.55 1910.22 1404.73 1912.04C1403.14 1913.63 1401.1 1914.42 1398.6 1914.42H1358.05C1355.56 1914.42 1353.4 1913.63 1351.58 1912.04C1349.99 1910.22 1349.2 1908.18 1349.2 1905.91V1778.14L1311.04 1849.35C1309.9 1851.39 1308.42 1853.21 1306.61 1854.8C1304.79 1856.39 1302.29 1857.19 1299.11 1857.19H1281.39C1278.21 1857.19 1275.72 1856.39 1273.9 1854.8C1272.08 1853.21 1270.6 1851.39 1269.47 1849.35L1230.97 1778.14V1905.91C1230.97 1908.18 1230.17 1910.22 1228.58 1912.04C1226.99 1913.63 1224.95 1914.42 1222.45 1914.42H1181.56Z" fill="#4063D8"/>
<path d="M1044.82 1917.83C1025.74 1917.83 1009.62 1914.77 996.443 1908.63C983.496 1902.5 973.502 1893.76 966.46 1882.4C959.646 1870.81 955.784 1857.07 954.876 1841.17C954.649 1836.63 954.535 1831.52 954.535 1825.84C954.535 1819.93 954.649 1814.82 954.876 1810.51C955.784 1794.38 959.873 1780.64 967.142 1769.28C974.41 1757.92 984.518 1749.18 997.465 1743.05C1010.64 1736.91 1026.43 1733.85 1044.82 1733.85C1063.45 1733.85 1079.24 1736.91 1092.18 1743.05C1105.36 1749.18 1115.58 1757.92 1122.85 1769.28C1130.12 1780.64 1134.2 1794.38 1135.11 1810.51C1135.34 1814.82 1135.45 1819.93 1135.45 1825.84C1135.45 1831.52 1135.34 1836.63 1135.11 1841.17C1134.2 1857.07 1130.23 1870.81 1123.19 1882.4C1116.37 1893.76 1106.38 1902.5 1093.21 1908.63C1080.26 1914.77 1064.13 1917.83 1044.82 1917.83ZM1044.82 1876.27C1055.05 1876.27 1062.43 1873.2 1066.97 1867.07C1071.74 1860.93 1074.47 1851.73 1075.15 1839.47C1075.37 1836.06 1075.49 1831.52 1075.49 1825.84C1075.49 1820.16 1075.37 1815.62 1075.15 1812.21C1074.47 1800.17 1071.74 1791.09 1066.97 1784.95C1062.43 1778.59 1055.05 1775.41 1044.82 1775.41C1035.06 1775.41 1027.67 1778.59 1022.68 1784.95C1017.91 1791.09 1015.3 1800.17 1014.84 1812.21C1014.61 1815.62 1014.5 1820.16 1014.5 1825.84C1014.5 1831.52 1014.61 1836.06 1014.84 1839.47C1015.3 1851.73 1017.91 1860.93 1022.68 1867.07C1027.67 1873.2 1035.06 1876.27 1044.82 1876.27Z" fill="#4063D8"/>
<path d="M733.377 1914.42C730.879 1914.42 728.834 1913.63 727.244 1912.04C725.654 1910.22 724.859 1908.18 724.859 1905.91V1684.44C724.859 1681.95 725.654 1679.9 727.244 1678.31C728.834 1676.72 730.879 1675.93 733.377 1675.93H837.295C856.829 1675.93 872.842 1678.65 885.335 1684.1C897.828 1689.55 907.027 1697.39 912.933 1707.61C919.066 1717.61 922.132 1729.53 922.132 1743.39C922.132 1751.56 920.542 1758.83 917.362 1765.19C914.409 1771.33 910.662 1776.44 906.119 1780.52C901.803 1784.61 897.714 1787.57 893.853 1789.38C902.484 1793.47 910.094 1800.17 916.681 1809.49C923.495 1818.8 926.902 1829.7 926.902 1842.19C926.902 1857.19 923.495 1870.13 916.681 1881.04C910.094 1891.71 900.327 1900 887.379 1905.91C874.66 1911.59 858.987 1914.42 840.361 1914.42H733.377ZM786.188 1870.13H833.547C843.314 1870.13 850.696 1867.29 855.693 1861.61C860.69 1855.94 863.189 1849.46 863.189 1842.19C863.189 1834.24 860.577 1827.54 855.353 1822.09C850.355 1816.64 843.087 1813.91 833.547 1813.91H786.188V1870.13ZM786.188 1770.64H830.48C839.793 1770.64 846.721 1768.26 851.264 1763.49C856.034 1758.49 858.419 1752.36 858.419 1745.09C858.419 1737.82 856.034 1731.92 851.264 1727.37C846.721 1722.6 839.793 1720.22 830.48 1720.22H786.188V1770.64Z" fill="#4063D8"/>
<path d="M497.807 1914.42C495.308 1914.42 493.264 1913.63 491.674 1912.04C490.084 1910.22 489.289 1908.18 489.289 1905.91V1684.44C489.289 1681.95 490.084 1679.9 491.674 1678.31C493.264 1676.72 495.308 1675.93 497.807 1675.93H590.481C620.009 1675.93 643.178 1682.74 659.986 1696.37C676.795 1709.77 685.199 1728.85 685.199 1753.61C685.199 1769.74 681.338 1783.36 673.615 1794.49C665.892 1805.62 655.671 1814.03 642.951 1819.71L689.628 1903.52C690.31 1904.88 690.65 1906.13 690.65 1907.27C690.65 1909.09 689.855 1910.79 688.265 1912.38C686.903 1913.74 685.313 1914.42 683.496 1914.42H638.181C633.865 1914.42 630.685 1913.4 628.641 1911.36C626.596 1909.09 625.12 1907.04 624.211 1905.23L585.37 1830.27H550.617V1905.91C550.617 1908.18 549.709 1910.22 547.892 1912.04C546.302 1913.63 544.257 1914.42 541.759 1914.42H497.807ZM550.617 1781.89H589.799C600.475 1781.89 608.425 1779.28 613.649 1774.05C619.101 1768.83 621.826 1761.79 621.826 1752.93C621.826 1744.07 619.214 1736.91 613.99 1731.46C608.993 1726.01 600.929 1723.28 589.799 1723.28H550.617V1781.89Z" fill="#4063D8"/>
<path d="M231.776 1914.42C229.959 1914.42 228.255 1913.74 226.665 1912.38C225.303 1910.79 224.621 1909.09 224.621 1907.27C224.621 1906.13 224.735 1905.11 224.962 1904.2L305.029 1685.47C305.711 1682.97 307.074 1680.81 309.118 1678.99C311.389 1676.95 314.456 1675.93 318.317 1675.93H368.743C372.604 1675.93 375.557 1676.95 377.601 1678.99C379.873 1680.81 381.349 1682.97 382.031 1685.47L461.757 1904.2C462.212 1905.11 462.439 1906.13 462.439 1907.27C462.439 1909.09 461.644 1910.79 460.054 1912.38C458.691 1913.74 456.987 1914.42 454.943 1914.42H413.035C409.628 1914.42 407.016 1913.63 405.199 1912.04C403.609 1910.22 402.587 1908.63 402.133 1907.27L388.845 1872.52H297.874L284.927 1907.27C284.473 1908.63 283.451 1910.22 281.861 1912.04C280.271 1913.63 277.545 1914.42 273.684 1914.42H231.776ZM311.844 1823.45H375.216L343.53 1733.51L311.844 1823.45Z" fill="#4063D8"/>
<path d="M159.794 1936.57C156.16 1936.57 153.321 1935.55 151.277 1933.5C149.459 1931.68 147.983 1930.09 146.847 1928.73L135.263 1913.4C126.405 1916.35 116.297 1917.83 104.94 1917.83C84.0426 1917.83 65.8712 1914.42 50.4255 1907.61C35.207 1900.79 23.1685 1890.57 14.3099 1876.94C5.67855 1863.09 1.02214 1845.83 0.340712 1825.16C0.113571 1815.39 0 1805.62 0 1795.85C0 1785.86 0.113571 1775.98 0.340712 1766.21C1.02214 1745.77 5.79212 1728.62 14.6507 1714.76C23.5092 1700.68 35.6613 1690.12 51.107 1683.08C66.5526 1676.04 84.4968 1672.52 104.94 1672.52C125.61 1672.52 143.667 1676.04 159.113 1683.08C174.559 1690.12 186.711 1700.68 195.569 1714.76C204.655 1728.62 209.425 1745.77 209.879 1766.21C210.334 1775.98 210.561 1785.86 210.561 1795.85C210.561 1805.62 210.334 1815.39 209.879 1825.16C208.744 1853.32 200.566 1875.13 185.348 1890.57L210.22 1926.01C210.447 1926.23 210.674 1926.69 210.901 1927.37C211.129 1928.05 211.242 1928.73 211.242 1929.41C211.469 1931.23 210.901 1932.82 209.539 1934.18C208.176 1935.77 206.472 1936.57 204.428 1936.57H159.794ZM104.94 1868.77C116.978 1868.77 126.745 1865.13 134.241 1857.86C141.964 1850.59 146.052 1839.01 146.507 1823.11C146.961 1813.12 147.188 1803.69 147.188 1794.83C147.188 1785.97 146.961 1776.77 146.507 1767.23C146.279 1756.56 144.349 1747.93 140.714 1741.34C137.08 1734.53 132.197 1729.53 126.064 1726.35C120.158 1723.17 113.117 1721.58 104.94 1721.58C97.2168 1721.58 90.289 1723.17 84.1561 1726.35C78.0233 1729.53 73.1397 1734.53 69.5055 1741.34C66.0983 1747.93 64.1676 1756.56 63.7133 1767.23C63.4862 1776.77 63.3726 1785.97 63.3726 1794.83C63.3726 1803.69 63.4862 1813.12 63.7133 1823.11C64.3948 1839.01 68.4833 1850.59 75.979 1857.86C83.4747 1865.13 93.1282 1868.77 104.94 1868.77Z" fill="#4063D8"/>
</svg>
