<svg width="1706" height="1980" viewBox="0 0 1706 1980" fill="none" xmlns="http://www.w3.org/2000/svg">
<path d="M1657.28 1914.32C1654.78 1914.32 1652.74 1913.52 1651.15 1911.93C1649.56 1910.11 1648.76 1908.07 1648.76 1905.8V1680.93C1648.76 1678.43 1649.56 1676.39 1651.15 1674.8C1652.74 1673.21 1654.78 1672.41 1657.28 1672.41H1697.48C1699.98 1672.41 1702.03 1673.21 1703.62 1674.8C1705.21 1676.39 1706 1678.43 1706 1680.93V1905.8C1706 1908.07 1705.21 1910.11 1703.62 1911.93C1702.03 1913.52 1699.98 1914.32 1697.48 1914.32H1657.28Z" fill="black"/>
<path d="M1515.97 1979.05C1513.47 1979.05 1511.43 1978.14 1509.84 1976.32C1508.25 1974.73 1507.45 1972.8 1507.45 1970.53V1942.93C1507.45 1940.44 1508.25 1938.39 1509.84 1936.8C1511.43 1935.21 1513.47 1934.42 1515.97 1934.42H1528.58C1534.26 1934.42 1538.57 1933.28 1541.52 1931.01C1544.48 1928.97 1546.52 1926.01 1547.66 1922.15C1548.79 1918.52 1549.36 1914.31 1549.36 1909.54V1745.66C1549.36 1743.16 1550.16 1741.12 1551.75 1739.53C1553.56 1737.94 1555.61 1737.14 1557.88 1737.14H1600.13C1602.63 1737.14 1604.67 1737.94 1606.26 1739.53C1607.85 1741.12 1608.64 1743.16 1608.64 1745.66V1910.91C1608.64 1925.67 1605.69 1938.05 1599.79 1948.05C1594.11 1958.27 1585.82 1965.99 1574.91 1971.21C1564.01 1976.44 1550.72 1979.05 1535.05 1979.05H1515.97ZM1557.54 1711.59C1555.27 1711.59 1553.22 1710.8 1551.41 1709.21C1549.82 1707.62 1549.02 1705.57 1549.02 1703.07V1672.41C1549.02 1670.14 1549.82 1668.21 1551.41 1666.62C1553.22 1664.8 1555.27 1663.89 1557.54 1663.89H1600.47C1602.74 1663.89 1604.67 1664.8 1606.26 1666.62C1608.08 1668.21 1608.99 1670.14 1608.99 1672.41V1703.07C1608.99 1705.57 1608.08 1707.62 1606.26 1709.21C1604.67 1710.8 1602.74 1711.59 1600.47 1711.59H1557.54Z" fill="black"/>
<path d="M1457.27 1914.31C1454.77 1914.31 1452.73 1913.52 1451.14 1911.93C1449.55 1910.11 1448.75 1908.07 1448.75 1905.8V1862.53C1448.75 1860.03 1449.55 1857.98 1451.14 1856.39C1452.73 1854.8 1454.77 1854.01 1457.27 1854.01H1500.54C1502.81 1854.01 1504.74 1854.8 1506.33 1856.39C1508.15 1857.98 1509.06 1860.03 1509.06 1862.53V1905.8C1509.06 1908.07 1508.15 1910.11 1506.33 1911.93C1504.74 1913.52 1502.81 1914.31 1500.54 1914.31H1457.27Z" fill="black"/>
<path d="M1181.56 1914.32C1179.29 1914.32 1177.25 1913.52 1175.43 1911.93C1173.84 1910.11 1173.05 1908.07 1173.05 1905.8V1684.33C1173.05 1681.84 1173.84 1679.79 1175.43 1678.2C1177.25 1676.61 1179.29 1675.82 1181.56 1675.82H1218.36C1222.22 1675.82 1225.06 1676.84 1226.88 1678.88C1228.7 1680.7 1229.83 1682.18 1230.29 1683.31L1290.25 1790.64L1350.22 1683.31C1350.9 1682.18 1352.03 1680.7 1353.62 1678.88C1355.44 1676.84 1358.28 1675.82 1362.14 1675.82H1398.6C1401.1 1675.82 1403.14 1676.61 1404.73 1678.2C1406.55 1679.79 1407.46 1681.84 1407.46 1684.33V1905.8C1407.46 1908.07 1406.55 1910.11 1404.73 1911.93C1403.14 1913.52 1401.1 1914.32 1398.6 1914.32H1358.05C1355.56 1914.32 1353.4 1913.52 1351.58 1911.93C1349.99 1910.11 1349.2 1908.07 1349.2 1905.8V1778.03L1311.04 1849.24C1309.9 1851.28 1308.42 1853.1 1306.61 1854.69C1304.79 1856.28 1302.29 1857.08 1299.11 1857.08H1281.39C1278.21 1857.08 1275.72 1856.28 1273.9 1854.69C1272.08 1853.1 1270.6 1851.28 1269.47 1849.24L1230.97 1778.03V1905.8C1230.97 1908.07 1230.17 1910.11 1228.58 1911.93C1226.99 1913.52 1224.95 1914.32 1222.45 1914.32H1181.56Z" fill="black"/>
<path d="M1044.82 1917.72C1025.74 1917.72 1009.62 1914.66 996.443 1908.52C983.496 1902.39 973.502 1893.65 966.46 1882.29C959.646 1870.7 955.784 1856.96 954.876 1841.06C954.649 1836.52 954.535 1831.41 954.535 1825.73C954.535 1819.83 954.649 1814.71 954.876 1810.4C955.784 1794.27 959.873 1780.53 967.142 1769.17C974.41 1757.82 984.518 1749.07 997.465 1742.94C1010.64 1736.8 1026.43 1733.74 1044.82 1733.74C1063.45 1733.74 1079.24 1736.8 1092.18 1742.94C1105.36 1749.07 1115.58 1757.82 1122.85 1769.17C1130.12 1780.53 1134.2 1794.27 1135.11 1810.4C1135.34 1814.71 1135.45 1819.83 1135.45 1825.73C1135.45 1831.41 1135.34 1836.52 1135.11 1841.06C1134.2 1856.96 1130.23 1870.7 1123.19 1882.29C1116.37 1893.65 1106.38 1902.39 1093.21 1908.52C1080.26 1914.66 1064.13 1917.72 1044.82 1917.72ZM1044.82 1876.16C1055.05 1876.16 1062.43 1873.09 1066.97 1866.96C1071.74 1860.82 1074.47 1851.62 1075.15 1839.36C1075.37 1835.95 1075.49 1831.41 1075.49 1825.73C1075.49 1820.05 1075.37 1815.51 1075.15 1812.1C1074.47 1800.06 1071.74 1790.98 1066.97 1784.85C1062.43 1778.49 1055.05 1775.31 1044.82 1775.31C1035.06 1775.31 1027.67 1778.49 1022.68 1784.85C1017.91 1790.98 1015.3 1800.06 1014.84 1812.1C1014.61 1815.51 1014.5 1820.05 1014.5 1825.73C1014.5 1831.41 1014.61 1835.95 1014.84 1839.36C1015.3 1851.62 1017.91 1860.82 1022.68 1866.96C1027.67 1873.09 1035.06 1876.16 1044.82 1876.16Z" fill="black"/>
<path d="M733.377 1914.32C730.879 1914.32 728.834 1913.52 727.244 1911.93C725.654 1910.11 724.859 1908.07 724.859 1905.8V1684.33C724.859 1681.84 725.654 1679.79 727.244 1678.2C728.834 1676.61 730.879 1675.82 733.377 1675.82H837.295C856.829 1675.82 872.842 1678.54 885.335 1683.99C897.828 1689.44 907.027 1697.28 912.933 1707.5C919.066 1717.5 922.132 1729.42 922.132 1743.28C922.132 1751.45 920.542 1758.72 917.362 1765.08C914.409 1771.22 910.662 1776.33 906.119 1780.42C901.803 1784.5 897.714 1787.46 893.853 1789.27C902.484 1793.36 910.094 1800.06 916.681 1809.38C923.495 1818.69 926.902 1829.59 926.902 1842.08C926.902 1857.08 923.495 1870.02 916.681 1880.93C910.094 1891.6 900.327 1899.89 887.38 1905.8C874.66 1911.48 858.987 1914.32 840.361 1914.32H733.377ZM786.188 1870.02H833.547C843.314 1870.02 850.696 1867.18 855.693 1861.51C860.69 1855.83 863.189 1849.35 863.189 1842.08C863.189 1834.13 860.577 1827.43 855.353 1821.98C850.355 1816.53 843.087 1813.81 833.547 1813.81H786.188V1870.02ZM786.188 1770.53H830.48C839.793 1770.53 846.721 1768.15 851.264 1763.38C856.034 1758.38 858.419 1752.25 858.419 1744.98C858.419 1737.71 856.034 1731.81 851.264 1727.26C846.721 1722.49 839.793 1720.11 830.48 1720.11H786.188V1770.53Z" fill="black"/>
<path d="M497.807 1914.32C495.308 1914.32 493.264 1913.52 491.674 1911.93C490.084 1910.11 489.289 1908.07 489.289 1905.8V1684.33C489.289 1681.84 490.084 1679.79 491.674 1678.2C493.264 1676.61 495.308 1675.82 497.807 1675.82H590.481C620.009 1675.82 643.178 1682.63 659.986 1696.26C676.795 1709.66 685.199 1728.74 685.199 1753.5C685.199 1769.63 681.338 1783.25 673.615 1794.38C665.892 1805.51 655.671 1813.92 642.951 1819.6L689.628 1903.41C690.31 1904.78 690.65 1906.02 690.65 1907.16C690.65 1908.98 689.855 1910.68 688.265 1912.27C686.903 1913.63 685.313 1914.32 683.496 1914.32H638.181C633.865 1914.32 630.685 1913.29 628.641 1911.25C626.596 1908.98 625.12 1906.93 624.211 1905.12L585.37 1830.16H550.617V1905.8C550.617 1908.07 549.709 1910.11 547.892 1911.93C546.302 1913.52 544.257 1914.32 541.759 1914.32H497.807ZM550.617 1781.78H589.799C600.475 1781.78 608.425 1779.17 613.649 1773.94C619.101 1768.72 621.826 1761.68 621.826 1752.82C621.826 1743.96 619.214 1736.8 613.99 1731.35C608.993 1725.9 600.929 1723.18 589.799 1723.18H550.617V1781.78Z" fill="black"/>
<path d="M231.776 1914.32C229.959 1914.32 228.255 1913.63 226.665 1912.27C225.303 1910.68 224.621 1908.98 224.621 1907.16C224.621 1906.02 224.735 1905 224.962 1904.09L305.029 1685.36C305.711 1682.86 307.074 1680.7 309.118 1678.88C311.389 1676.84 314.456 1675.82 318.317 1675.82H368.743C372.604 1675.82 375.557 1676.84 377.601 1678.88C379.873 1680.7 381.349 1682.86 382.031 1685.36L461.757 1904.09C462.212 1905 462.439 1906.02 462.439 1907.16C462.439 1908.98 461.644 1910.68 460.054 1912.27C458.691 1913.63 456.987 1914.32 454.943 1914.32H413.035C409.628 1914.32 407.016 1913.52 405.199 1911.93C403.609 1910.11 402.587 1908.52 402.133 1907.16L388.845 1872.41H297.874L284.927 1907.16C284.473 1908.52 283.451 1910.11 281.861 1911.93C280.271 1913.52 277.545 1914.32 273.684 1914.32H231.776ZM311.844 1823.35H375.216L343.53 1733.4L311.844 1823.35Z" fill="black"/>
<path d="M159.794 1936.46C156.16 1936.46 153.321 1935.44 151.277 1933.39C149.459 1931.58 147.983 1929.99 146.847 1928.62L135.263 1913.29C126.405 1916.24 116.297 1917.72 104.94 1917.72C84.0426 1917.72 65.8712 1914.31 50.4255 1907.5C35.207 1900.68 23.1685 1890.46 14.3099 1876.83C5.67855 1862.98 1.02214 1845.72 0.340712 1825.05C0.113571 1815.28 0 1805.51 0 1795.74C0 1785.75 0.113571 1775.87 0.340712 1766.1C1.02214 1745.66 5.79212 1728.51 14.6507 1714.65C23.5092 1700.57 35.6613 1690.01 51.107 1682.97C66.5526 1675.93 84.4968 1672.41 104.94 1672.41C125.61 1672.41 143.667 1675.93 159.113 1682.97C174.559 1690.01 186.711 1700.57 195.569 1714.65C204.655 1728.51 209.425 1745.66 209.879 1766.1C210.334 1775.87 210.561 1785.75 210.561 1795.74C210.561 1805.51 210.334 1815.28 209.879 1825.05C208.744 1853.21 200.566 1875.02 185.348 1890.46L210.22 1925.9C210.447 1926.12 210.674 1926.58 210.901 1927.26C211.129 1927.94 211.242 1928.62 211.242 1929.3C211.469 1931.12 210.901 1932.71 209.539 1934.07C208.176 1935.66 206.472 1936.46 204.428 1936.46H159.794ZM104.94 1868.66C116.978 1868.66 126.745 1865.02 134.241 1857.75C141.964 1850.49 146.052 1838.9 146.507 1823C146.961 1813.01 147.188 1803.58 147.188 1794.72C147.188 1785.86 146.961 1776.66 146.507 1767.12C146.279 1756.45 144.349 1747.82 140.714 1741.23C137.08 1734.42 132.197 1729.42 126.064 1726.24C120.158 1723.06 113.117 1721.47 104.94 1721.47C97.2168 1721.47 90.289 1723.06 84.1561 1726.24C78.0233 1729.42 73.1397 1734.42 69.5055 1741.23C66.0983 1747.82 64.1676 1756.45 63.7133 1767.12C63.4862 1776.66 63.3726 1785.86 63.3726 1794.72C63.3726 1803.58 63.4862 1813.01 63.7133 1823C64.3948 1838.9 68.4833 1850.49 75.979 1857.75C83.4747 1865.02 93.1282 1868.66 104.94 1868.66Z" fill="black"/>
<path d="M1356.75 799.862L853.001 1179L1210.41 910.002L1356.75 799.862Z" fill="#9558B2"/>
<path d="M1210.41 688.355L853.001 416.005L1356.75 799.867L1210.41 688.355Z" fill="#CB3C33"/>
<path d="M853 1179L1706 1595L1356.75 1112.27L853 1179Z" fill="#389826"/>
<path d="M1706 8.00354L853 416.003L1356.75 487.461L1706 8.00354Z" fill="#4063D8"/>
<path d="M1706 1066L1356.74 1112.26L853 1179L1210.41 909.999L1356.74 799.859L1706 1066Z" fill="#CB3C33"/>
<path d="M853 416.005L1210.41 688.355L1356.75 799.867L1706 537.005L1356.75 487.462L853 416.005Z" fill="#9558B2"/>
<path d="M349.254 795.138L852.999 416L495.592 684.998L349.254 795.138Z" fill="#9558B2"/>
<path d="M495.592 906.649L852.999 1179L349.254 795.137L495.592 906.649Z" fill="#CB3C33"/>
<path d="M853 416L0 0L349.255 482.733L853 416Z" fill="#389826"/>
<path d="M0 1587L853 1179L349.255 1107.54L0 1587Z" fill="#4063D8"/>
<path d="M0 1058L349.255 1107.54L853 1179L495.593 906.648L349.255 795.137L0 1058Z" fill="#9558B2"/>
<path fill-rule="evenodd" clip-rule="evenodd" d="M495.593 684.999L853 416L349.255 482.733L0 529L349.255 795.138L495.593 684.999Z" fill="#CB3C33"/>
</svg>
