<svg width="1706" height="1942" viewBox="0 0 1706 1942" fill="none" xmlns="http://www.w3.org/2000/svg">
<path d="M1657.28 1876.7C1654.78 1876.7 1652.74 1875.91 1651.15 1874.32C1649.56 1872.5 1648.76 1870.46 1648.76 1868.19V1643.31C1648.76 1640.82 1649.56 1638.77 1651.15 1637.18C1652.74 1635.59 1654.78 1634.8 1657.28 1634.8H1697.48C1699.98 1634.8 1702.03 1635.59 1703.62 1637.18C1705.21 1638.77 1706 1640.82 1706 1643.31V1868.19C1706 1870.46 1705.21 1872.5 1703.62 1874.32C1702.03 1875.91 1699.98 1876.7 1697.48 1876.7H1657.28Z" fill="white"/>
<path d="M1515.97 1941.44C1513.47 1941.44 1511.43 1940.53 1509.84 1938.71C1508.25 1937.12 1507.45 1935.19 1507.45 1932.92V1905.32C1507.45 1902.82 1508.25 1900.78 1509.84 1899.19C1511.43 1897.6 1513.47 1896.8 1515.97 1896.8H1528.58C1534.26 1896.8 1538.57 1895.67 1541.52 1893.4C1544.48 1891.35 1546.52 1888.4 1547.66 1884.54C1548.79 1880.9 1549.36 1876.7 1549.36 1871.93V1708.05C1549.36 1705.55 1550.16 1703.51 1551.75 1701.92C1553.56 1700.33 1555.61 1699.53 1557.88 1699.53H1600.13C1602.63 1699.53 1604.67 1700.33 1606.26 1701.92C1607.85 1703.51 1608.64 1705.55 1608.64 1708.05V1873.29C1608.64 1888.06 1605.69 1900.44 1599.79 1910.43C1594.11 1920.65 1585.82 1928.38 1574.91 1933.6C1564.01 1938.82 1550.72 1941.44 1535.05 1941.44H1515.97ZM1557.54 1673.98C1555.27 1673.98 1553.22 1673.18 1551.41 1671.59C1549.82 1670 1549.02 1667.96 1549.02 1665.46V1634.8C1549.02 1632.52 1549.82 1630.59 1551.41 1629C1553.22 1627.19 1555.27 1626.28 1557.54 1626.28H1600.47C1602.74 1626.28 1604.67 1627.19 1606.26 1629C1608.08 1630.59 1608.99 1632.52 1608.99 1634.8V1665.46C1608.99 1667.96 1608.08 1670 1606.26 1671.59C1604.67 1673.18 1602.74 1673.98 1600.47 1673.98H1557.54Z" fill="white"/>
<path d="M1457.27 1876.7C1454.77 1876.7 1452.73 1875.91 1451.14 1874.32C1449.55 1872.5 1448.75 1870.45 1448.75 1868.18V1824.91C1448.75 1822.41 1449.55 1820.37 1451.14 1818.78C1452.73 1817.19 1454.77 1816.39 1457.27 1816.39H1500.54C1502.81 1816.39 1504.74 1817.19 1506.33 1818.78C1508.15 1820.37 1509.06 1822.41 1509.06 1824.91V1868.18C1509.06 1870.45 1508.15 1872.5 1506.33 1874.32C1504.74 1875.91 1502.81 1876.7 1500.54 1876.7H1457.27Z" fill="white"/>
<path d="M1181.56 1876.7C1179.29 1876.7 1177.25 1875.91 1175.43 1874.32C1173.84 1872.5 1173.05 1870.46 1173.05 1868.18V1646.72C1173.05 1644.22 1173.84 1642.18 1175.43 1640.59C1177.25 1639 1179.29 1638.2 1181.56 1638.2H1218.36C1222.22 1638.2 1225.06 1639.23 1226.88 1641.27C1228.7 1643.09 1229.83 1644.56 1230.29 1645.7L1290.25 1753.02L1350.22 1645.7C1350.9 1644.56 1352.03 1643.09 1353.62 1641.27C1355.44 1639.23 1358.28 1638.2 1362.14 1638.2H1398.6C1401.1 1638.2 1403.14 1639 1404.73 1640.59C1406.55 1642.18 1407.46 1644.22 1407.46 1646.72V1868.18C1407.46 1870.46 1406.55 1872.5 1404.73 1874.32C1403.14 1875.91 1401.1 1876.7 1398.6 1876.7H1358.05C1355.56 1876.7 1353.4 1875.91 1351.58 1874.32C1349.99 1872.5 1349.2 1870.46 1349.2 1868.18V1740.42L1311.04 1811.63C1309.9 1813.67 1308.42 1815.49 1306.61 1817.08C1304.79 1818.67 1302.29 1819.46 1299.11 1819.46H1281.39C1278.21 1819.46 1275.72 1818.67 1273.9 1817.08C1272.08 1815.49 1270.6 1813.67 1269.47 1811.63L1230.97 1740.42V1868.18C1230.97 1870.46 1230.17 1872.5 1228.58 1874.32C1226.99 1875.91 1224.95 1876.7 1222.45 1876.7H1181.56Z" fill="white"/>
<path d="M1044.82 1880.11C1025.74 1880.11 1009.62 1877.04 996.443 1870.91C983.496 1864.78 973.502 1856.03 966.46 1844.68C959.646 1833.09 955.784 1819.35 954.876 1803.45C954.649 1798.91 954.535 1793.8 954.535 1788.12C954.535 1782.21 954.649 1777.1 954.876 1772.79C955.784 1756.66 959.873 1742.92 967.142 1731.56C974.41 1720.2 984.518 1711.46 997.465 1705.32C1010.64 1699.19 1026.43 1696.12 1044.82 1696.12C1063.45 1696.12 1079.24 1699.19 1092.18 1705.32C1105.36 1711.46 1115.58 1720.2 1122.85 1731.56C1130.12 1742.92 1134.2 1756.66 1135.11 1772.79C1135.34 1777.1 1135.45 1782.21 1135.45 1788.12C1135.45 1793.8 1135.34 1798.91 1135.11 1803.45C1134.2 1819.35 1130.23 1833.09 1123.19 1844.68C1116.37 1856.03 1106.38 1864.78 1093.21 1870.91C1080.26 1877.04 1064.13 1880.11 1044.82 1880.11ZM1044.82 1838.54C1055.05 1838.54 1062.43 1835.48 1066.97 1829.34C1071.74 1823.21 1074.47 1814.01 1075.15 1801.75C1075.37 1798.34 1075.49 1793.8 1075.49 1788.12C1075.49 1782.44 1075.37 1777.9 1075.15 1774.49C1074.47 1762.45 1071.74 1753.36 1066.97 1747.23C1062.43 1740.87 1055.05 1737.69 1044.82 1737.69C1035.06 1737.69 1027.67 1740.87 1022.68 1747.23C1017.91 1753.36 1015.3 1762.45 1014.84 1774.49C1014.61 1777.9 1014.5 1782.44 1014.5 1788.12C1014.5 1793.8 1014.61 1798.34 1014.84 1801.75C1015.3 1814.01 1017.91 1823.21 1022.68 1829.34C1027.67 1835.48 1035.06 1838.54 1044.82 1838.54Z" fill="white"/>
<path d="M733.377 1876.7C730.879 1876.7 728.834 1875.91 727.244 1874.32C725.654 1872.5 724.859 1870.46 724.859 1868.18V1646.72C724.859 1644.22 725.654 1642.18 727.244 1640.59C728.834 1639 730.879 1638.2 733.377 1638.2H837.295C856.829 1638.2 872.842 1640.93 885.335 1646.38C897.828 1651.83 907.027 1659.67 912.933 1669.89C919.066 1679.88 922.132 1691.81 922.132 1705.66C922.132 1713.84 920.542 1721.11 917.362 1727.47C914.409 1733.6 910.662 1738.71 906.119 1742.8C901.803 1746.89 897.714 1749.84 893.853 1751.66C902.484 1755.75 910.094 1762.45 916.681 1771.76C923.495 1781.08 926.902 1791.98 926.902 1804.47C926.902 1819.46 923.495 1832.41 916.681 1843.31C910.094 1853.99 900.327 1862.28 887.38 1868.18C874.66 1873.86 858.987 1876.7 840.361 1876.7H733.377ZM786.188 1832.41H833.547C843.314 1832.41 850.696 1829.57 855.693 1823.89C860.69 1818.21 863.189 1811.74 863.189 1804.47C863.189 1796.52 860.577 1789.82 855.353 1784.37C850.355 1778.92 843.087 1776.19 833.547 1776.19H786.188V1832.41ZM786.188 1732.92H830.48C839.793 1732.92 846.721 1730.54 851.264 1725.77C856.034 1720.77 858.419 1714.64 858.419 1707.37C858.419 1700.1 856.034 1694.19 851.264 1689.65C846.721 1684.88 839.793 1682.5 830.48 1682.5H786.188V1732.92Z" fill="white"/>
<path d="M497.807 1876.7C495.308 1876.7 493.264 1875.91 491.674 1874.32C490.084 1872.5 489.289 1870.46 489.289 1868.18V1646.72C489.289 1644.22 490.084 1642.18 491.674 1640.59C493.264 1639 495.308 1638.2 497.807 1638.2H590.481C620.009 1638.2 643.178 1645.02 659.986 1658.65C676.795 1672.05 685.199 1691.13 685.199 1715.89C685.199 1732.01 681.338 1745.64 673.615 1756.77C665.892 1767.9 655.671 1776.31 642.951 1781.98L689.628 1865.8C690.31 1867.16 690.65 1868.41 690.65 1869.55C690.65 1871.36 689.855 1873.07 688.265 1874.66C686.903 1876.02 685.313 1876.7 683.496 1876.7H638.181C633.865 1876.7 630.685 1875.68 628.641 1873.64C626.596 1871.36 625.12 1869.32 624.211 1867.5L585.37 1792.55H550.617V1868.18C550.617 1870.46 549.709 1872.5 547.892 1874.32C546.302 1875.91 544.257 1876.7 541.759 1876.7H497.807ZM550.617 1744.16H589.799C600.475 1744.16 608.425 1741.55 613.649 1736.33C619.101 1731.1 621.826 1724.06 621.826 1715.2C621.826 1706.35 619.214 1699.19 613.99 1693.74C608.993 1688.29 600.929 1685.56 589.799 1685.56H550.617V1744.16Z" fill="white"/>
<path d="M231.776 1876.7C229.959 1876.7 228.255 1876.02 226.665 1874.66C225.303 1873.07 224.621 1871.36 224.621 1869.55C224.621 1868.41 224.735 1867.39 224.962 1866.48L305.029 1647.74C305.711 1645.24 307.074 1643.09 309.118 1641.27C311.389 1639.23 314.456 1638.2 318.317 1638.2H368.743C372.604 1638.2 375.557 1639.23 377.601 1641.27C379.873 1643.09 381.349 1645.24 382.031 1647.74L461.757 1866.48C462.212 1867.39 462.439 1868.41 462.439 1869.55C462.439 1871.36 461.644 1873.07 460.054 1874.66C458.691 1876.02 456.987 1876.7 454.943 1876.7H413.035C409.628 1876.7 407.016 1875.91 405.199 1874.32C403.609 1872.5 402.587 1870.91 402.133 1869.55L388.845 1834.79H297.874L284.927 1869.55C284.473 1870.91 283.451 1872.5 281.861 1874.32C280.271 1875.91 277.545 1876.7 273.684 1876.7H231.776ZM311.844 1785.73H375.216L343.53 1695.78L311.844 1785.73Z" fill="white"/>
<path d="M159.794 1898.85C156.16 1898.85 153.321 1897.82 151.277 1895.78C149.459 1893.96 147.983 1892.37 146.847 1891.01L135.263 1875.68C126.405 1878.63 116.297 1880.11 104.94 1880.11C84.0426 1880.11 65.8712 1876.7 50.4255 1869.88C35.207 1863.07 23.1685 1852.85 14.3099 1839.22C5.67855 1825.37 1.02214 1808.1 0.340712 1787.43C0.113571 1777.67 0 1767.9 0 1758.13C0 1748.14 0.113571 1738.26 0.340712 1728.49C1.02214 1708.05 5.79212 1690.9 14.6507 1677.04C23.5092 1662.96 35.6613 1652.4 51.107 1645.36C66.5526 1638.31 84.4968 1634.79 104.94 1634.79C125.61 1634.79 143.667 1638.31 159.113 1645.36C174.559 1652.4 186.711 1662.96 195.569 1677.04C204.655 1690.9 209.425 1708.05 209.879 1728.49C210.334 1738.26 210.561 1748.14 210.561 1758.13C210.561 1767.9 210.334 1777.67 209.879 1787.43C208.744 1815.6 200.566 1837.4 185.348 1852.85L210.22 1888.28C210.447 1888.51 210.674 1888.96 210.901 1889.65C211.129 1890.33 211.242 1891.01 211.242 1891.69C211.469 1893.51 210.901 1895.1 209.539 1896.46C208.176 1898.05 206.472 1898.85 204.428 1898.85H159.794ZM104.94 1831.04C116.978 1831.04 126.745 1827.41 134.241 1820.14C141.964 1812.87 146.052 1801.29 146.507 1785.39C146.961 1775.39 147.188 1765.97 147.188 1757.11C147.188 1748.25 146.961 1739.05 146.507 1729.51C146.279 1718.84 144.349 1710.2 140.714 1703.62C137.08 1696.8 132.197 1691.81 126.064 1688.63C120.158 1685.45 113.117 1683.86 104.94 1683.86C97.2168 1683.86 90.289 1685.45 84.1561 1688.63C78.0233 1691.81 73.1397 1696.8 69.5055 1703.62C66.0983 1710.2 64.1676 1718.84 63.7133 1729.51C63.4862 1739.05 63.3726 1748.25 63.3726 1757.11C63.3726 1765.97 63.4862 1775.39 63.7133 1785.39C64.3948 1801.29 68.4833 1812.87 75.979 1820.14C83.4747 1827.41 93.1282 1831.04 104.94 1831.04Z" fill="white"/>
<path d="M853 416L0 0L349.255 482.733L853 416Z" fill="#389826"/>
<path fill-rule="evenodd" clip-rule="evenodd" d="M495.593 684.999L853 416L349.255 482.733L0 529L349.255 795.138L495.593 684.999Z" fill="#CB3C33"/>
<path d="M349.254 795.14L852.999 1174.28L495.592 905.279L349.254 795.14Z" fill="#9558B2"/>
<path d="M853 1174.28L0 1590.28L349.255 1107.54L853 1174.28Z" fill="#4063D8"/>
<path fill-rule="evenodd" clip-rule="evenodd" d="M495.593 905.279L853 1174.28L349.255 1107.54L0 1061.28L349.255 795.14L495.593 905.279Z" fill="#9558B2"/>
<path d="M853 1174.27L1706 1590.27L1356.75 1107.54L853 1174.27Z" fill="#389826"/>
<path fill-rule="evenodd" clip-rule="evenodd" d="M1210.41 905.275L853 1174.27L1356.75 1107.54L1706 1061.27L1356.75 795.136L1210.41 905.275Z" fill="#CB3C33"/>
<path d="M1356.75 795.138L853.001 416L1210.41 684.998L1356.75 795.138Z" fill="#9558B2"/>
<path d="M853 416L1706 0L1356.75 482.733L853 416Z" fill="#4063D8"/>
<path fill-rule="evenodd" clip-rule="evenodd" d="M1210.41 684.999L853 416L1356.75 482.733L1706 529L1356.75 795.138L1210.41 684.999Z" fill="#9558B2"/>
</svg>
